<svg xmlns="http://www.w3.org/2000/svg" width="431" height="130" viewBox="0 0 431 130" fill="none">
<path d="M12.8592 102.607V123.522H10.3001V102.607H3.39227V100.431H19.7678V102.607H12.8592ZM413.69 48.4146V52.3691V54.9055V61.1055V62.5344C413.69 73.4293 409.237 83.3314 402.06 90.5077C401.113 91.4555 400.116 92.3549 399.077 93.2046C404.6 91.7575 409.549 88.8464 413.48 84.9167C419.226 79.1693 422.793 71.2467 422.793 62.5344V52.3691V44.4622V43.4524V41.0141C422.793 32.3026 419.226 24.3788 413.48 18.6326C407.733 12.886 399.81 9.31917 391.098 9.31917H386.017C377.305 9.31917 369.382 12.886 363.636 18.6326L363.368 18.9036C363.28 18.9946 363.192 19.0856 363.104 19.1774V19.1787L362.843 19.4542L362.842 19.4546L362.585 19.7347V19.7351L362.331 20.0177L362.329 20.0181L362.08 20.3039L362.078 20.3052L361.831 20.5927L361.83 20.5939L361.588 20.8851L361.586 20.8877L361.347 21.1805L361.345 21.1818L361.109 21.4784L361.108 21.48C361.03 21.5785 360.953 21.6782 360.876 21.78L360.874 21.7816L360.645 22.0832L360.643 22.0853L360.417 22.3902L360.416 22.3922L360.195 22.6992L360.193 22.7017L359.975 23.0111L359.973 23.014L359.759 23.3259L359.757 23.3284C359.686 23.4323 359.617 23.5377 359.547 23.6432L359.544 23.6465L359.339 23.9634L359.335 23.9667C359.268 24.0726 359.201 24.179 359.134 24.2853L359.132 24.2903L358.933 24.6109L358.93 24.615L358.735 24.9393L358.733 24.943L358.542 25.269L358.539 25.2736L358.353 25.6029L358.35 25.6079L358.168 25.9376L358.165 25.9425L357.986 26.2755L357.982 26.2809L357.808 26.6152L357.805 26.6214C357.748 26.7339 357.69 26.8452 357.634 26.9573L357.632 26.9639L357.465 27.3023L357.462 27.309L357.3 27.6498L357.296 27.656L357.138 27.9994L357.135 28.006L356.982 28.3506L356.977 28.3568C356.928 28.4727 356.877 28.5889 356.828 28.7043L356.825 28.7113L356.68 29.0601L356.676 29.068L356.535 29.4179L356.532 29.4258L356.395 29.7779L356.392 29.7865L356.258 30.1411L356.256 30.1489L356.127 30.5047L356.124 30.5134L355.999 30.8708L355.996 30.88L355.876 31.2398L355.873 31.2485L355.757 31.6097L355.755 31.6192L355.644 31.982C355.571 32.2265 355.501 32.4718 355.433 32.7184L355.429 32.732L355.427 32.7432C355.393 32.8652 355.361 32.9868 355.329 33.1101L355.326 33.1205L355.233 33.4895L355.23 33.5007L355.142 33.8705C355.113 33.995 355.084 34.1191 355.057 34.2433L355.055 34.2532L355.052 34.2647C355.024 34.3889 354.999 34.5134 354.973 34.6379L354.971 34.6495C354.944 34.7752 354.921 34.8981 354.896 35.0239L354.893 35.0367L354.823 35.4119L354.821 35.4247C354.798 35.5497 354.777 35.6759 354.756 35.8016L354.753 35.8144C354.733 35.9402 354.712 36.066 354.693 36.193L354.691 36.2054C354.671 36.3324 354.652 36.4582 354.634 36.5856L354.633 36.5984L354.582 36.9794L354.58 36.9935C354.563 37.1196 354.548 37.2475 354.533 37.3749L354.532 37.389L354.49 37.7716L354.489 37.7857C354.475 37.9143 354.463 38.043 354.451 38.17V38.1849L354.418 38.57L354.417 38.585L354.389 38.9717L354.389 38.9866C354.38 39.1153 354.374 39.2452 354.366 39.3734L354.365 39.39C354.36 39.5187 354.353 39.6477 354.348 39.7768L354.348 39.7929C354.343 39.9224 354.34 40.0527 354.335 40.1822V40.1983C354.331 40.3282 354.329 40.4594 354.327 40.5884V40.605L354.324 40.9951V41.0129V61.1456C354.335 65.4749 356.114 69.412 358.973 72.2718C361.698 74.9964 365.401 76.7389 369.488 76.9068C365.723 72.7058 363.428 67.1619 363.428 61.1046V52.3683V44.4614V42.4434C363.428 35.9137 366.095 29.9827 370.393 25.6848C374.69 21.387 380.622 18.7199 387.151 18.7199H389.969C396.497 18.7199 402.429 21.3874 406.727 25.6848C411.025 29.9827 413.692 35.9137 413.692 42.4434V43.452V44.4618V48.4146H413.69ZM380.052 101.685C378.106 101.983 376.114 102.137 374.088 102.137H369.007C358.113 102.137 348.211 97.6824 341.035 90.5073C333.86 83.3314 329.405 73.4289 329.405 62.5339V54.9051V44.4618V41.0137C329.405 30.1183 333.86 20.217 341.035 13.0411C348.211 5.86484 358.113 1.41104 369.007 1.41104H374.088C376.114 1.41104 378.107 1.56535 380.054 1.86238L380.419 1.8078L380.497 1.79661L380.511 1.79536L380.603 1.78296L380.969 1.73331L380.991 1.73084L381.062 1.72175L381.43 1.67748L381.486 1.67004L381.522 1.66713C381.667 1.64935 381.811 1.63447 381.955 1.61999L381.983 1.61623H381.984L382.009 1.61457L382.448 1.57199L382.48 1.56908L382.541 1.56411L382.914 1.53349L382.981 1.52731L383.007 1.52606H383.007C383.162 1.51448 383.317 1.5033 383.473 1.49338L383.484 1.49297C383.649 1.4818 383.816 1.47187 383.984 1.464H383.988L384.035 1.46154L384.411 1.44417L384.493 1.44086L384.504 1.44041L384.529 1.4392C384.677 1.43382 384.826 1.42885 384.976 1.42554L384.999 1.42389H385.001L385.449 1.41601L385.508 1.4148L385.543 1.41435C385.701 1.41311 385.859 1.41189 386.017 1.41189H391.098C401.993 1.41189 411.895 5.86568 419.071 13.042C426.246 20.2179 430.7 30.1192 430.7 41.0145V52.3696V62.5348C430.7 73.4297 426.246 83.3318 419.071 90.5081C411.895 97.6832 401.993 102.138 391.098 102.138H386.017C383.991 102.138 381.998 101.984 380.052 101.686L380.052 101.685ZM380.053 75.2255C381.563 74.4606 382.936 73.4603 384.123 72.273C386.991 69.4037 388.773 65.4513 388.773 61.1055V54.9055V44.4622V42.4442C388.773 38.0984 386.991 34.1448 384.123 31.2762C382.936 30.0898 381.563 29.0891 380.053 28.3238L379.982 28.3593L379.968 28.3659L379.912 28.3961L379.842 28.4317L379.771 28.4706L379.702 28.507L379.562 28.5827L379.493 28.6212L379.463 28.639L379.424 28.6605L379.355 28.6998L379.286 28.7391L379.218 28.7788L379.151 28.8181L379.083 28.8586L379.014 28.8992L378.968 28.9277L378.947 28.9405L378.879 28.9815L378.813 29.0233L378.805 29.027L378.745 29.0655L378.679 29.1081L378.677 29.1085L378.613 29.1503L378.546 29.1933L378.484 29.233L378.48 29.2363L378.415 29.2798L378.349 29.324L378.284 29.3683L378.219 29.413L378.21 29.4192L378.11 29.4891L378.09 29.5028L378.025 29.5487L378.014 29.5565L377.962 29.5933L377.898 29.6393L377.859 29.667L377.833 29.686L377.77 29.7332L377.707 29.7799L377.657 29.8159L377.643 29.8271L377.581 29.8738L377.555 29.8953L377.519 29.923L377.456 29.9714L377.404 30.012L377.394 30.0194L377.334 30.0687L377.272 30.1171L377.255 30.1299L377.211 30.1667L377.149 30.2164L377.108 30.2503L377.089 30.2668L376.968 30.3678L376.962 30.3719L376.908 30.4187L376.849 30.4695L376.819 30.4952L376.79 30.5212L376.729 30.573L376.675 30.6214L376.67 30.6251L376.612 30.6772L376.553 30.7302L376.534 30.7476L376.496 30.7836L376.438 30.8357L376.394 30.8758L376.38 30.8899L376.323 30.9432L376.267 30.9974L376.256 31.0065L376.209 31.0512L376.152 31.107L376.119 31.1385L376.096 31.1613L376.04 31.2171L375.984 31.2713C373.116 34.1398 371.335 38.0935 371.335 42.4393V52.3646V61.1009C371.335 65.4467 373.116 69.3991 375.984 72.2685C377.171 73.4562 378.545 74.4565 380.055 75.221L380.053 75.2255ZM346.415 44.4618V42.3996V41.0141C346.415 30.1187 350.869 20.2175 358.045 13.0416C358.149 12.9373 358.253 12.8335 358.358 12.7321L358.384 12.7073L358.403 12.6874L358.629 12.4698L358.673 12.426L358.719 12.383L358.725 12.3764L358.764 12.3395L358.81 12.2961L358.993 12.1236L359.039 12.0814L359.085 12.0384L359.13 11.9962L359.355 11.7893L359.454 11.6987L359.502 11.6557L359.548 11.6148L359.688 11.4877L359.735 11.446L359.824 11.3673L359.829 11.3632L359.876 11.3214L359.923 11.2805L359.971 11.2379L360.018 11.1982L360.065 11.1564L360.208 11.0331L360.255 10.9913L360.302 10.9512L360.351 10.9094L360.399 10.8689L360.591 10.7063L360.638 10.6662L360.687 10.6252L360.735 10.5851L360.782 10.5458L361.026 10.3451C355.503 11.7918 350.554 14.7034 346.623 18.6334C340.88 24.3767 337.314 32.2927 337.31 40.9972V41.0149V44.4631V52.37V54.9063V62.5352C337.31 71.2475 340.877 79.1701 346.623 84.9175C352.369 90.6629 360.292 94.2305 369.004 94.2305H374.085C382.798 94.2305 390.721 90.6633 396.466 84.9175C402.213 79.1701 405.78 71.2475 405.78 62.5352V56.2781V54.9063V52.37V48.4155V46.999V44.4631V43.4533V42.4447C405.78 38.0989 404 34.1452 401.131 31.2767L401.002 31.1505L400.996 31.1439L400.871 31.0256L400.859 31.0115L400.741 30.9002L400.619 30.7881L400.605 30.7765L400.497 30.678L400.467 30.6499L400.367 30.5618L400.339 30.5378L400.295 30.4998L400.256 30.4663L400.166 30.3885L400.124 30.355L400.028 30.2739L399.972 30.2288L399.887 30.1581L399.858 30.1341L399.783 30.0757L399.752 30.0497L399.671 29.9868L399.641 29.9632L399.558 29.8986L399.547 29.89L399.446 29.8126L399.373 29.758L399.324 29.7212L399.221 29.6463L399.208 29.6372L399.099 29.5599L399.061 29.5321L398.944 29.4498L398.914 29.4287L398.786 29.3418L398.764 29.3265L398.73 29.303L398.612 29.2256L398.468 29.1321L398.461 29.1263L398.307 29.0299L398.306 29.0287L398.153 28.9339L398.144 28.929L397.998 28.8409L397.98 28.8305L397.841 28.7494L397.712 28.6741L397.684 28.6588L397.65 28.6398L397.526 28.5703L397.522 28.5691L397.405 28.5049L397.346 28.4727L397.254 28.4251L397.204 28.3986L397.144 28.3672L397.043 28.3155H397.042L396.897 28.2422L396.861 28.2257L396.74 28.1674L396.714 28.155L396.627 28.114L396.591 28.0962L396.496 28.054L396.423 28.0201L396.334 27.9804L396.217 27.9286L396.215 27.9274L396.068 27.8654L396.049 27.8575L395.923 27.8045L395.878 27.788L395.744 27.7334L395.709 27.7193L395.669 27.7032C395.511 27.6424 395.353 27.5824 395.193 27.5261L395.02 27.467L395.017 27.4645L394.845 27.4078L394.834 27.4033L394.671 27.3511C394.442 27.2792 394.214 27.2125 393.982 27.153L393.945 27.1426L393.818 27.1104L393.764 27.0967L393.608 27.0582L393.593 27.0549L393.436 27.0177L393.403 27.0111L393.248 26.9759L393.23 26.9726C393.051 26.9358 392.873 26.9002 392.694 26.8692L392.674 26.8655C392.37 26.8125 392.064 26.7674 391.754 26.7319L391.573 26.7128L391.567 26.7124C391.252 26.6793 390.934 26.6578 390.616 26.6445C394.38 30.846 396.677 36.3891 396.677 42.4471V43.4557V44.4655V47.0015V52.3724V54.9088V56.2806V61.1088C396.677 67.6368 394.009 73.5687 389.711 77.8665C385.414 82.1652 379.482 84.8327 372.953 84.8327H370.135C363.606 84.8327 357.675 82.1648 353.378 77.8665C349.079 73.5687 346.412 67.6368 346.412 61.1088V52.3724V44.4655L346.415 44.4618ZM46.2846 42.7686V52.367V63.1375V79.3513H32.421V74.2162C29.6244 78.4561 25.9484 80.2511 20.4632 80.2511C14.9781 80.2511 8.62877 79.2851 5.08178 76.7091C1.53397 74.1318 0 70.9922 0 63.4577C0 52.3666 7.21684 46.8215 21.6493 46.8215H32.4206V42.7686C32.4206 40.3506 31.5671 38.6627 29.8602 37.7029C28.1542 36.7428 25.3105 36.2629 21.3291 36.2629C19.7546 36.2629 18.1499 36.3221 16.5162 36.4408L16.4781 36.4433C15.3306 36.5367 14.1851 36.6488 13.0453 36.7767C12.7144 36.8168 12.3834 36.8586 12.0508 36.9029C11.6264 36.9674 11.2263 37.015 10.8532 37.0456C9.26586 37.2561 7.68928 37.5002 6.12222 37.7807C6.12222 33.8428 6.02624 30.5643 6.02624 26.6077C8.53735 25.5309 12.2804 24.5058 17.4768 24.5045C18.545 24.4512 19.544 24.4259 20.4756 24.4259C29.2203 24.4259 35.7078 25.8829 39.9382 28.7974C44.1682 31.7119 46.2838 36.3696 46.2838 42.7682L46.2846 42.7686ZM70.6303 79.0282H64.6339H62.5989H56.6016V73.0558V52.3675V45.9685C56.6016 39.0003 58.5294 33.6682 62.3838 29.9714C66.3106 26.2751 72.0216 24.4268 79.5189 24.4268C87.0137 24.4268 92.2974 26.7008 95.367 31.2523C98.6509 26.7008 103.898 24.4268 111.109 24.4268C118.819 24.4268 124.531 26.2036 128.243 29.7588C131.955 33.3133 133.811 38.7161 133.811 45.9685V52.3675V73.0558V79.0282H127.815H125.78H119.783V73.0558V52.3675V45.9685C119.783 42.769 119.176 40.5649 117.963 39.3565C116.749 38.1472 114.464 37.5437 111.109 37.5437C107.539 37.5437 105.13 38.1472 103.881 39.3565C102.632 40.5649 102.007 42.7686 102.007 45.9685V52.3675V73.0558V79.0282H96.0095H94.4031H88.4066V73.0558V52.3675V45.9685C88.4066 42.769 87.7824 40.5649 86.5326 39.3565C85.2841 38.1472 82.9455 37.5437 79.5193 37.5437C76.163 37.5437 73.8426 38.165 72.5573 39.4094C71.2724 40.6534 70.6303 42.8397 70.6303 45.9685V52.3675V73.0558V79.0282ZM165.216 79.0282H159.146H157.225H151.254V73.0558V52.3675V38.8232H150.925H146.988H141.655L141.672 34.2511C141.661 34.0095 141.655 33.7559 141.655 33.4907V33.065C141.655 32.7568 141.664 32.4627 141.679 32.1822V32.1781C141.679 28.2782 142.053 27.97 145.975 26.9093C146.261 26.8237 146.563 26.743 146.881 26.6665L151.254 25.7063V21.3344C151.254 14.2247 152.942 9.05274 156.319 5.81685C159.696 2.5822 164.868 0.965515 171.836 0.965515C176.078 0.965515 179.158 1.90002 183.246 2.60909V8.43098V9.49664V14.9636C179.859 14.5851 176.305 14.0828 172.903 14.0828C167.712 14.0828 165.117 16.1091 165.117 20.162V25.7067H172.911H176.208H182.181V31.6788V32.8516V38.824H176.208H172.911H165.117V52.3683H165.216V79.029L165.216 79.0282ZM261.308 79.0282H255.336H253.31H247.339V73.0558V52.3675V43.8351C247.339 37.5073 249.222 32.6911 252.99 29.3848C256.758 26.079 262.269 24.4264 269.52 24.4264H270.693C272.754 24.4264 274.177 24.9228 274.959 25.9189C275.741 26.9147 276.132 28.6911 276.132 31.2518V32.4247C276.132 34.6996 275.776 36.157 275.065 36.7969C274.355 37.4369 272.897 37.6856 270.693 37.5441H269.52C266.391 37.5441 264.241 38.0769 263.067 39.1434C261.895 40.2103 261.308 42.1299 261.308 44.9024V52.3679V73.0562V79.0286L261.308 79.0282ZM298.972 79.0282H293H291.08H285.108V73.0558V31.6779V25.7059H291.08H293H298.972V31.6779V73.0558V79.0282ZM297.906 15.5746C296.271 17.2099 294.315 18.0278 292.04 18.0278C289.764 18.0278 287.809 17.2099 286.174 15.5746C284.539 13.9401 283.721 11.9842 283.721 9.70886C283.721 7.43397 284.539 5.47889 286.174 3.84398C287.81 2.20783 289.764 1.39161 292.04 1.39161C294.315 1.39161 296.271 2.20783 297.906 3.84398C299.541 5.47889 300.358 7.43439 300.358 9.70886C300.358 11.9842 299.541 13.9401 297.906 15.5746ZM223.539 56.6326V48.1015C223.539 44.1908 222.721 41.4534 221.087 39.8897C219.451 38.3247 216.465 37.5437 212.128 37.5437C207.791 37.5437 204.771 38.3429 203.064 39.9427C201.357 41.542 200.504 44.2624 200.504 48.1015V56.6326C200.504 60.4721 201.357 63.1917 203.064 64.7914C204.771 66.3908 207.791 67.1908 212.128 67.1908C216.465 67.1908 219.451 66.409 221.087 64.8436C222.721 63.2802 223.539 60.5424 223.539 56.6326ZM212.128 80.3078C203.455 80.3078 197.02 78.3531 192.826 74.442C188.632 70.5327 186.534 64.5958 186.534 56.6326V48.1015C186.534 40.4941 188.72 34.6466 193.093 30.5577C197.466 26.4696 203.811 24.4264 212.128 24.4264C220.803 24.4264 227.202 26.3802 231.325 30.2913C235.449 34.2015 237.51 40.1379 237.51 48.1015V56.6326C237.51 64.3107 235.36 70.1769 231.058 74.2294C226.757 78.2811 220.447 80.3078 212.128 80.3078H212.128ZM32.4214 61.3772V57.2726H21.4367C16.3888 57.2726 13.8649 59.2285 13.8649 63.1383C14.0775 65.4136 14.8598 66.9236 16.2105 67.6712C17.5616 68.417 19.8013 68.6144 22.9292 68.6839C27.2879 68.7807 32.4214 65.6254 32.4214 61.3772ZM296.135 113.672C296.135 112.138 295.768 110.902 295.033 109.963C294.3 109.025 293.265 108.556 291.933 108.556C290.442 108.556 289.306 109.025 288.526 109.963C287.748 110.902 287.302 112.138 287.189 113.672H296.135ZM299.118 119.973C298.823 120.442 298.496 120.906 298.135 121.365C297.773 121.822 297.327 122.238 296.796 122.611C296.265 122.985 295.638 123.283 294.915 123.507C294.193 123.73 293.334 123.843 292.34 123.843C291.346 123.843 290.391 123.676 289.477 123.347C288.562 123.015 287.749 122.498 287.037 121.795C286.324 121.092 285.754 120.196 285.325 119.108C284.896 118.021 284.682 116.72 284.682 115.207C284.682 113.863 284.851 112.66 285.189 111.593C285.529 110.527 286.014 109.621 286.647 108.874C287.28 108.128 288.036 107.558 288.917 107.163C289.799 106.769 290.782 106.572 291.866 106.572C292.769 106.572 293.627 106.716 294.441 107.004C295.254 107.292 295.965 107.739 296.576 108.347C297.185 108.955 297.672 109.739 298.033 110.698C298.394 111.657 298.575 112.797 298.575 114.12V115.655H287.121C287.121 116.572 287.257 117.409 287.527 118.165C287.798 118.923 288.172 119.573 288.646 120.117C289.12 120.66 289.674 121.087 290.307 121.396C290.94 121.705 291.617 121.859 292.34 121.859C293.424 121.859 294.379 121.609 295.203 121.108C296.028 120.607 296.7 119.919 297.22 119.045L299.118 119.973ZM269.349 119.301C269.927 120.09 270.627 120.713 271.45 121.172C272.273 121.63 273.23 121.859 274.319 121.859C275.608 121.859 276.553 121.577 277.153 121.012C277.754 120.447 278.053 119.814 278.053 119.109C278.053 118.406 277.798 117.856 277.286 117.463C276.776 117.068 276.141 116.743 275.386 116.488C274.63 116.231 273.812 115.991 272.934 115.768C272.056 115.544 271.244 115.251 270.499 114.887C269.754 114.525 269.137 114.051 268.648 113.464C268.159 112.878 267.936 112.073 267.981 111.05C268.025 109.6 268.575 108.486 269.632 107.708C270.688 106.93 272.05 106.552 273.718 106.573C274.274 106.573 274.847 106.647 275.436 106.796C276.024 106.945 276.58 107.148 277.102 107.405C277.625 107.66 278.109 107.963 278.553 108.315C278.998 108.667 279.365 109.056 279.654 109.483L277.987 110.89C277.32 110.101 276.641 109.514 275.952 109.131C275.263 108.748 274.451 108.555 273.518 108.555C272.495 108.555 271.716 108.779 271.183 109.227C270.649 109.674 270.382 110.271 270.382 111.019C270.382 111.615 270.632 112.084 271.133 112.425C271.634 112.766 272.256 113.059 273 113.305C273.746 113.55 274.551 113.79 275.419 114.024C276.286 114.259 277.091 114.573 277.837 114.968C278.581 115.362 279.204 115.874 279.704 116.503C280.204 117.131 280.455 117.959 280.455 118.981C280.455 119.791 280.288 120.5 279.954 121.108C279.62 121.716 279.171 122.222 278.604 122.627C278.036 123.033 277.387 123.335 276.652 123.538C275.919 123.741 275.163 123.843 274.384 123.843C273.028 123.843 271.733 123.57 270.499 123.027C269.265 122.484 268.248 121.7 267.447 120.677L269.349 119.302L269.349 119.301ZM260.818 115.207C260.818 113.053 260.366 111.407 259.46 110.266C258.555 109.125 257.328 108.555 255.779 108.555C254.231 108.555 253.005 109.125 252.1 110.266C251.195 111.407 250.742 113.053 250.742 115.207C250.742 117.36 251.195 119.008 252.1 120.148C253.005 121.289 254.231 121.859 255.779 121.859C257.328 121.859 258.555 121.29 259.46 120.148C260.365 119.008 260.818 117.36 260.818 115.207ZM263.39 115.207C263.39 116.401 263.23 117.526 262.908 118.582C262.587 119.637 262.111 120.554 261.478 121.332C260.847 122.11 260.056 122.723 259.103 123.171C258.151 123.619 257.042 123.843 255.78 123.843C254.517 123.843 253.411 123.619 252.458 123.171C251.505 122.724 250.713 122.11 250.081 121.332C249.45 120.554 248.974 119.637 248.652 118.582C248.331 117.526 248.17 116.401 248.17 115.207C248.17 114.013 248.331 112.888 248.652 111.833C248.973 110.777 249.45 109.861 250.081 109.083C250.713 108.304 251.505 107.692 252.458 107.243C253.412 106.796 254.517 106.572 255.78 106.572C257.042 106.572 258.151 106.796 259.103 107.243C260.056 107.692 260.848 108.304 261.478 109.083C262.11 109.861 262.587 110.777 262.908 111.833C263.23 112.888 263.39 114.013 263.39 115.207ZM231.476 119.557C232.168 120.239 232.93 120.794 233.764 121.22C234.599 121.646 235.397 121.859 236.159 121.859C236.899 121.859 237.59 121.742 238.233 121.508C238.877 121.273 239.437 120.889 239.914 120.356C240.39 119.823 240.76 119.125 241.021 118.261C241.283 117.398 241.415 116.337 241.415 115.08C241.415 112.947 240.944 111.326 240.002 110.218C239.061 109.109 237.78 108.555 236.159 108.555C235.325 108.555 234.562 108.725 233.872 109.067C233.18 109.407 232.382 109.983 231.476 110.793V119.556L231.476 119.557ZM228.902 129.663V106.892H231.476V108.843H231.548C231.787 108.523 232.09 108.23 232.46 107.963C232.829 107.696 233.229 107.457 233.658 107.244C234.086 107.031 234.534 106.865 234.998 106.749C235.463 106.632 235.922 106.572 236.374 106.572C237.184 106.572 238.042 106.71 238.948 106.988C239.854 107.265 240.675 107.734 241.415 108.395C242.154 109.056 242.767 109.94 243.255 111.049C243.744 112.158 243.989 113.544 243.989 115.207C243.989 116.828 243.744 118.186 243.255 119.285C242.767 120.383 242.16 121.267 241.432 121.939C240.706 122.611 239.901 123.096 239.019 123.394C238.138 123.693 237.304 123.842 236.518 123.842C235.635 123.842 234.778 123.666 233.944 123.314C233.109 122.962 232.335 122.52 231.62 121.986L231.476 121.923V129.662H228.902V129.663ZM215.38 106.892H218.014V110.186H218.088C218.453 109.61 218.831 109.104 219.222 108.666C219.613 108.229 220.051 107.862 220.54 107.564C221.027 107.265 221.575 107.036 222.186 106.876C222.795 106.716 223.49 106.636 224.271 106.636V108.939C222.612 108.981 221.314 109.456 220.374 110.362C219.435 111.268 218.649 112.585 218.014 114.312V123.522H215.38V106.892ZM206.263 123.522V121.284H206.192C205.444 122.03 204.602 122.643 203.662 123.123C202.724 123.602 201.711 123.843 200.629 123.843C199.93 123.843 199.255 123.757 198.605 123.586C197.955 123.416 197.377 123.138 196.872 122.755C196.366 122.371 195.961 121.871 195.661 121.252C195.361 120.634 195.21 119.877 195.21 118.981V106.892H197.811V118.916C197.811 120.026 198.088 120.794 198.642 121.22C199.196 121.646 199.942 121.859 200.881 121.859C201.362 121.859 201.862 121.779 202.381 121.619C202.898 121.459 203.392 121.256 203.862 121.011C204.331 120.766 204.777 120.495 205.199 120.196C205.619 119.897 205.975 119.61 206.263 119.332V106.891H208.864V123.521H206.263L206.263 123.522ZM177.795 119.556C178.485 120.239 179.246 120.793 180.079 121.219C180.912 121.646 181.709 121.858 182.47 121.858C183.208 121.858 183.898 121.741 184.541 121.507C185.183 121.272 185.742 120.889 186.218 120.356C186.693 119.823 187.062 119.124 187.324 118.261C187.586 117.397 187.717 116.337 187.717 115.079C187.717 112.947 187.247 111.325 186.307 110.217C185.367 109.109 184.088 108.555 182.47 108.555C181.637 108.555 180.876 108.725 180.186 109.067C179.496 109.407 178.699 109.983 177.795 110.793V119.556V119.556ZM175.225 129.662V106.891H177.795V108.842H177.867C178.105 108.522 178.408 108.229 178.777 107.963C179.145 107.696 179.544 107.457 179.972 107.243C180.4 107.03 180.847 106.865 181.311 106.748C181.775 106.631 182.233 106.572 182.685 106.572C183.493 106.572 184.35 106.71 185.254 106.988C186.159 107.265 186.979 107.734 187.717 108.394C188.455 109.055 189.068 109.94 189.555 111.049C190.043 112.157 190.288 113.544 190.288 115.206C190.288 116.828 190.044 118.185 189.555 119.285C189.068 120.382 188.461 121.267 187.735 121.939C187.01 122.61 186.206 123.095 185.325 123.393C184.446 123.692 183.613 123.842 182.828 123.842C181.947 123.842 181.091 123.665 180.258 123.314C179.425 122.962 178.652 122.52 177.939 121.986L177.796 121.923V129.662H175.225L175.225 129.662ZM149.716 100.431V109.13H149.787C150.519 108.383 151.345 107.771 152.266 107.291C153.187 106.813 154.177 106.572 155.241 106.572C155.925 106.572 156.586 106.657 157.223 106.827C157.86 106.999 158.427 107.276 158.922 107.659C159.419 108.043 159.814 108.544 160.11 109.163C160.404 109.781 160.552 110.537 160.552 111.433V123.522H158.002V111.498C158.002 110.389 157.731 109.621 157.189 109.195C156.645 108.768 155.914 108.555 154.992 108.555C154.52 108.555 154.031 108.635 153.523 108.795C153.016 108.955 152.532 109.157 152.072 109.403C151.611 109.648 151.174 109.92 150.761 110.218C150.348 110.517 150 110.804 149.717 111.082V123.522H147.167V100.432H149.717L149.716 100.431ZM135.206 106.891V101.423H137.508V106.891H141.346V108.874H137.508V120.708C137.508 121.092 137.651 121.379 137.94 121.571C138.227 121.764 138.713 121.859 139.395 121.859C139.779 121.859 140.141 121.843 140.482 121.811C140.824 121.779 141.144 121.742 141.442 121.699V123.586C141.228 123.65 140.898 123.709 140.451 123.761C140.003 123.815 139.438 123.842 138.755 123.842C137.498 123.842 136.591 123.65 136.037 123.266C135.483 122.882 135.206 122.158 135.206 121.092V108.874H132.488V106.891H135.206H135.206ZM127.651 100.112V102.862H125.348V100.112H127.651ZM125.348 106.891H127.651V123.521H125.348V106.891ZM98.5139 106.891H101.021L104.628 119.684H104.697L108.2 106.891H110.707L114.279 119.748H114.348L117.816 106.891H120.324L115.549 123.521H113.043L109.471 110.666H109.402L105.865 123.521H103.357L98.5144 106.891H98.5139ZM82.9786 113.672C82.9786 112.137 82.6315 110.901 81.939 109.962C81.2457 109.024 80.271 108.555 79.0134 108.555C77.6056 108.555 76.5345 109.024 75.7986 109.962C75.0634 110.901 74.6419 112.137 74.5352 113.672H82.979H82.9786ZM85.7921 119.972C85.5145 120.441 85.2051 120.905 84.865 121.364C84.5242 121.821 84.1026 122.237 83.6024 122.61C83.1015 122.984 82.5095 123.282 81.8273 123.506C81.1443 123.729 80.3347 123.842 79.396 123.842C78.457 123.842 77.5572 123.675 76.6938 123.346C75.83 123.014 75.0626 122.497 74.3908 121.794C73.7194 121.091 73.1803 120.195 72.7757 119.107C72.3703 118.02 72.1684 116.719 72.1684 115.206C72.1684 113.862 72.3277 112.659 72.6483 111.592C72.9673 110.527 73.4273 109.62 74.0234 108.874C74.6196 108.128 75.334 107.557 76.1659 107.163C76.9979 106.768 77.925 106.571 78.9488 106.571C79.8006 106.571 80.6119 106.715 81.3789 107.003C82.1467 107.291 82.8181 107.738 83.3939 108.346C83.969 108.954 84.4282 109.738 84.7691 110.697C85.1108 111.656 85.2812 112.797 85.2812 114.119V115.654H74.4714C74.4714 116.572 74.6001 117.408 74.8554 118.165C75.1114 118.922 75.4635 119.572 75.9107 120.116C76.3587 120.66 76.8804 121.086 77.4786 121.395C78.0747 121.704 78.7147 121.858 79.3969 121.858C80.4207 121.858 81.3209 121.609 82.0995 121.108C82.8772 120.606 83.5123 119.918 84.0025 119.044L85.7929 119.972H85.7921ZM64.2769 110.856C63.629 110.175 62.9162 109.62 62.1352 109.194C61.355 108.767 60.6074 108.555 59.8938 108.555C59.1798 108.555 58.5278 108.671 57.9366 108.905C57.3446 109.14 56.8271 109.524 56.3807 110.057C55.9348 110.591 55.5889 111.289 55.3436 112.153C55.0987 113.016 54.9754 114.077 54.9754 115.335C54.9754 117.467 55.4164 119.087 56.2972 120.196C57.1792 121.305 58.378 121.859 59.8942 121.859C60.6744 121.859 61.3889 121.688 62.0359 121.348C62.6821 121.006 63.4296 120.431 64.2773 119.621V110.857L64.2769 110.856ZM66.685 100.431V119.876C66.685 120.494 66.68 121.101 66.6688 121.699C66.6572 122.296 66.7081 122.903 66.8194 123.521H64.6111L64.2764 121.891C63.8752 122.423 63.2728 122.882 62.4699 123.266C61.6656 123.65 60.7402 123.842 59.6919 123.842C58.9117 123.842 58.1033 123.703 57.2664 123.425C56.4304 123.148 55.6663 122.679 54.9746 122.018C54.2837 121.358 53.7091 120.473 53.2512 119.364C52.7949 118.255 52.5653 116.869 52.5653 115.206C52.5653 113.586 52.7949 112.227 53.2512 111.128C53.7091 110.03 54.2784 109.147 54.9576 108.474C55.6382 107.802 56.3911 107.318 57.2168 107.019C58.0413 106.72 58.8228 106.572 59.5587 106.572C60.3844 106.572 61.187 106.748 61.9676 107.099C62.7483 107.452 63.4731 107.894 64.1428 108.428L64.2769 108.491V100.431H66.685V100.431ZM44.0258 114.535C38.5163 115.452 35.762 117.04 35.762 119.301C35.762 119.683 35.8517 120.036 36.0317 120.355C36.21 120.676 36.4346 120.947 36.7031 121.171C36.9712 121.395 37.2798 121.565 37.6273 121.683C37.9744 121.801 38.3153 121.858 38.6512 121.858C39.0769 121.858 39.5365 121.789 40.0288 121.651C40.5211 121.513 41.0034 121.315 41.4734 121.059C41.9429 120.803 42.3971 120.51 42.834 120.179C43.2704 119.848 43.6684 119.492 44.0267 119.107V114.534L44.0258 114.535ZM33.8478 110.089C34.4075 109.13 35.225 108.304 36.3006 107.612C37.3749 106.919 38.7409 106.572 40.3986 106.572C41.1375 106.572 41.8651 106.663 42.5821 106.844C43.2982 107.026 43.9427 107.313 44.5136 107.707C45.0853 108.102 45.5499 108.614 45.9073 109.242C46.2656 109.871 46.4459 110.645 46.4459 111.562V119.941C46.4459 120.858 46.4848 121.577 46.5622 122.099C46.6408 122.622 46.7363 123.097 46.848 123.522H44.3622L44.0933 121.22C43.4889 121.859 42.7053 122.457 41.7414 123.011C40.778 123.565 39.6366 123.843 38.3148 123.843C37.6434 123.843 37.0043 123.746 36.4007 123.555C35.7959 123.363 35.2692 123.074 34.8212 122.691C34.374 122.308 34.0158 121.833 33.7464 121.267C33.478 120.703 33.3439 120.037 33.3439 119.269C33.3439 118.352 33.5346 117.547 33.9144 116.854C34.2958 116.162 34.911 115.543 35.762 114.999C36.6129 114.455 37.7162 113.981 39.0711 113.576C40.4259 113.171 42.0774 112.808 44.0263 112.488V111.594C44.0263 110.485 43.6903 109.701 43.0185 109.242C42.3467 108.784 41.4845 108.555 40.4317 108.555C39.7599 108.555 39.1716 108.634 38.6681 108.795C38.1647 108.955 37.7336 109.163 37.3745 109.419C37.0158 109.674 36.7192 109.957 36.4843 110.266C36.2493 110.575 36.0751 110.868 35.9638 111.146L33.8478 110.09V110.089ZM21.4309 106.891H23.9651V110.186H24.0355C24.3879 109.61 24.7507 109.104 25.1268 108.666C25.5016 108.229 25.924 107.862 26.3939 107.563C26.8626 107.265 27.3913 107.036 27.9784 106.875C28.5646 106.715 29.2331 106.635 29.9831 106.635V108.939C28.3871 108.981 27.1394 109.455 26.2346 110.361C25.332 111.268 24.5753 112.584 23.9655 114.312V123.521H21.4313V106.891H21.4309Z" fill="#00439c"/>
</svg>