<svg width="431" height="177" viewBox="0 0 431 177" fill="none" xmlns="http://www.w3.org/2000/svg">
<path fill-rule="evenodd" clip-rule="evenodd" d="M214.308 70.3682V99.7677H223.22C230.056 99.7677 235.218 98.4972 238.706 95.977C242.195 93.4564 243.949 89.7459 243.949 84.8665C243.949 80.0875 242.336 76.478 239.09 74.0381C235.863 71.5981 231.064 70.3682 224.692 70.3682H214.308ZM103.872 38.5231C114.271 38.9778 123.435 43.7394 129.285 50.9003H116.737C115.339 48.6143 113.689 46.504 111.826 44.6093C109.472 42.2157 106.78 40.1667 103.828 38.543L103.872 38.5235V38.5231ZM130.209 52.0889C133.745 56.8703 135.855 62.6062 135.982 68.7863H121.912C121.813 62.7212 120.197 57.03 117.433 52.0889H130.209ZM135.982 69.9748C135.855 76.1554 133.744 81.8908 130.209 86.6722H117.433C120.197 81.7307 121.813 76.0395 121.912 69.9748H135.982ZM129.286 87.8607C123.436 95.0217 114.271 99.7833 103.873 100.238L103.828 100.219C106.78 98.5948 109.473 96.5458 111.826 94.1522C113.689 92.2579 115.339 90.1472 116.738 87.8612H129.286V87.8607ZM100.597 100.238C90.1987 99.7833 81.0351 95.0217 75.1847 87.8607H87.7323C89.131 90.1468 90.7812 92.2571 92.6441 94.1518C94.9976 96.5454 97.6899 98.5944 100.642 100.218L100.597 100.238L100.597 100.238ZM74.2605 86.6722C70.7251 81.8908 68.6148 76.155 68.4878 69.9748H82.5579C82.6572 76.04 84.273 81.7311 87.0369 86.6722H74.2605ZM68.4878 68.7863C68.6152 62.6058 70.7255 56.8703 74.2605 52.0889H87.0369C84.2734 57.0304 82.6572 62.7216 82.5579 68.7863H68.4878ZM75.1847 50.9003C81.0343 43.7394 90.1987 38.9778 100.597 38.5231L100.642 38.5426C97.6903 40.1663 94.998 42.2153 92.6445 44.6089C90.7812 46.5032 89.1314 48.6139 87.7327 50.8999H75.1851L75.1847 50.9003ZM101.641 39.6115C98.6844 41.1943 95.9937 43.2198 93.6522 45.601C92.067 47.2131 90.6418 48.9883 89.4036 50.9003H101.641V39.6115H101.641ZM88.6693 52.0889C85.7805 56.9825 84.0803 62.686 83.9764 68.7863H101.641V52.0889H88.6693ZM83.9764 69.9748C84.0803 76.0755 85.7801 81.7791 88.6693 86.6722H101.641V69.9748H83.9764ZM89.4036 87.8607C90.6422 89.7724 92.067 91.548 93.6522 93.1606C95.9937 95.5418 98.6844 97.5668 101.641 99.15V87.8612H89.4032L89.4036 87.8607ZM102.829 99.15C105.785 97.5668 108.477 95.5418 110.818 93.1606C112.403 91.5484 113.828 89.7728 115.067 87.8607H102.829V99.15ZM115.801 86.6726C118.69 81.7795 120.39 76.0755 120.494 69.9752H102.83V86.6726H115.802H115.801ZM120.494 68.7867C120.39 62.686 118.69 56.9824 115.801 52.0893H102.829V68.7867H120.494H120.494ZM115.067 50.9008C113.829 48.9891 112.404 47.2135 110.818 45.6014C108.477 43.2202 105.785 41.1947 102.83 39.6115V50.9008H115.067ZM113.145 0.408937H124.514H129.83L174.011 25.2925V98.206C174.011 104.234 169.08 109.165 163.052 109.165H133.959H113.146H39.8997C34.8779 109.165 30.7695 105.057 30.7695 100.035V100.035C30.7695 95.0135 34.8779 90.9047 39.8997 90.9047H70.759C77.9245 99.6683 89.3561 105.34 102.236 105.34C123.936 105.34 141.526 89.2408 141.526 69.3807C141.526 49.5207 123.936 33.4211 102.236 33.4211C91.6103 33.4211 81.9708 37.2829 74.8992 43.5553H20.0123C14.9913 43.5553 10.8826 39.4469 10.8826 34.4251V34.4247C10.8826 29.4033 14.9909 25.2945 20.0123 25.2945H102.187V20.0444H67.648C58.268 20.0444 50.5936 12.37 50.5936 2.98994V0.407684H113.147L113.145 0.408937ZM68.1838 87.3308H20.0119C14.9905 87.3308 10.8817 83.2225 10.8817 78.2007C10.8817 73.1789 14.9901 69.0705 20.0119 69.0705H62.9497C62.9489 69.1739 62.9456 69.2774 62.9456 69.3812C62.9456 75.9188 64.8523 82.0488 68.1838 87.3308ZM63.0767 66.4444H9.8806C4.44677 66.4444 0 61.998 0 56.5634V56.5629C0 51.1283 4.44635 46.6824 9.8806 46.6824H71.7638C66.8856 52.1617 63.7362 58.9806 63.0767 66.4444ZM61.9155 161.978H65.731L68.7799 172.41L71.8668 161.978H75.8631V176.768H73.2738V164.872L69.6999 176.768H67.8342L64.2707 164.894V176.768H61.8075V161.978H61.9155ZM87.5764 172.064H81.6631C81.6912 172.512 81.7652 172.906 81.8831 173.247C82.0101 173.614 82.1893 173.92 82.4189 174.164C82.6452 174.405 82.9219 174.588 83.2458 174.709C83.5731 174.831 83.952 174.893 84.3806 174.893C84.6007 174.893 84.8204 174.877 85.0367 174.845C85.2543 174.812 85.4707 174.764 85.6837 174.702C85.8988 174.639 86.1127 174.559 86.3237 174.464C86.5359 174.369 86.7453 174.257 86.9525 174.129L87.1172 174.026V176.246L87.0576 176.276C86.8214 176.395 86.581 176.499 86.3361 176.587C86.09 176.676 85.8413 176.749 85.5911 176.807C85.3404 176.863 85.0814 176.907 84.817 176.935C84.551 176.964 84.2792 176.978 84.0025 176.978C83.1937 176.978 82.4743 176.854 81.8459 176.608C81.2146 176.361 80.6752 175.99 80.2296 175.496C79.7853 175.001 79.4515 174.403 79.2306 173.703C79.0105 173.006 78.8996 172.208 78.8996 171.308C78.8996 170.426 79.0022 169.635 79.207 168.935C79.4122 168.233 79.722 167.624 80.1349 167.107C80.5494 166.588 81.04 166.198 81.6051 165.938C82.1698 165.678 82.809 165.547 83.523 165.547C84.1518 165.547 84.7202 165.674 85.2274 165.926C85.7346 166.177 86.1802 166.555 86.5628 167.056C86.9438 167.558 87.2301 168.142 87.4204 168.809C87.6099 169.474 87.705 170.222 87.705 171.052L87.7013 171.492L87.6794 172.063H87.5759L87.5764 172.064ZM85.1161 170.315V170.227C85.1161 169.784 85.0797 169.395 85.0082 169.06C84.9374 168.73 84.8315 168.451 84.6913 168.226C84.5543 168.006 84.3851 167.842 84.1849 167.733C83.9843 167.625 83.7476 167.57 83.4771 167.57C83.1937 167.57 82.9434 167.626 82.7287 167.739C82.5136 167.851 82.3299 168.022 82.1773 168.25C82.0213 168.483 81.8964 168.779 81.8029 169.138C81.7156 169.475 81.6552 169.868 81.6225 170.315H85.1157H85.1161ZM98.5164 167.159C98.648 166.938 98.7936 166.739 98.9533 166.563C99.1576 166.338 99.3872 166.148 99.6396 165.998C99.892 165.847 100.168 165.734 100.467 165.66C100.766 165.585 101.087 165.548 101.431 165.548C101.908 165.548 102.331 165.628 102.7 165.788C103.07 165.949 103.386 166.19 103.642 166.512C103.901 166.829 104.094 167.216 104.222 167.67C104.349 168.121 104.413 168.638 104.413 169.222V176.768H101.698V169.726C101.698 169.402 101.67 169.122 101.616 168.886C101.563 168.656 101.484 168.469 101.379 168.326C101.279 168.187 101.149 168.082 100.992 168.013C100.83 167.941 100.637 167.905 100.413 167.905C99.937 167.905 99.5643 168.116 99.2921 168.538C99.1527 168.754 99.0464 169.016 98.976 169.32C98.9045 169.629 98.8689 169.982 98.8689 170.38V176.767H96.1538V169.725C96.1538 169.401 96.1265 169.121 96.0719 168.885C96.019 168.656 95.94 168.468 95.8353 168.325C95.7348 168.186 95.6057 168.081 95.4501 168.012C95.29 167.941 95.0993 167.905 94.8793 167.905C94.3965 167.905 94.02 168.116 93.7478 168.537C93.608 168.754 93.5029 169.015 93.4322 169.319C93.3606 169.628 93.3246 169.982 93.3246 170.379V176.767H90.6095V168.381L90.6042 167.685C90.6004 167.466 90.5942 167.254 90.5851 167.052L90.552 166.46L90.4987 165.777H92.9965L93.0474 166.305C93.0685 166.56 93.0843 166.788 93.095 166.987L93.0987 167.056C93.1835 166.913 93.2787 166.78 93.3829 166.655C93.5745 166.426 93.8008 166.225 94.061 166.054C94.3187 165.885 94.5921 165.758 94.8784 165.673C95.1643 165.589 95.465 165.546 95.779 165.546C96.1137 165.546 96.4248 165.585 96.7131 165.661C97.0027 165.737 97.27 165.854 97.5136 166.008C97.7573 166.164 97.9716 166.355 98.154 166.581C98.293 166.753 98.4147 166.946 98.5173 167.157L98.5164 167.159ZM110.539 171.833C110.539 172.325 110.58 172.759 110.66 173.134C110.74 173.505 110.861 173.82 111.02 174.076C111.176 174.329 111.364 174.518 111.583 174.643C111.801 174.768 112.053 174.831 112.339 174.831C112.635 174.831 112.895 174.76 113.116 174.618C113.337 174.477 113.524 174.261 113.674 173.972C113.83 173.676 113.948 173.305 114.026 172.861C114.105 172.412 114.145 171.888 114.145 171.288C114.145 170.69 114.106 170.165 114.026 169.715C113.948 169.271 113.83 168.9 113.675 168.605C113.524 168.313 113.337 168.096 113.115 167.953C112.894 167.81 112.635 167.739 112.339 167.739C112.053 167.739 111.801 167.802 111.583 167.927C111.364 168.052 111.176 168.242 111.02 168.496C110.861 168.756 110.741 169.072 110.66 169.442C110.58 169.817 110.539 170.248 110.539 170.736V171.835V171.833ZM107.932 160.844H110.539V166.96C110.649 166.796 110.764 166.647 110.884 166.513C111.082 166.291 111.294 166.11 111.519 165.971C111.745 165.83 111.993 165.724 112.264 165.654C112.533 165.584 112.824 165.548 113.137 165.548C113.77 165.548 114.329 165.672 114.813 165.918C115.299 166.165 115.709 166.535 116.04 167.028C116.371 167.515 116.619 168.114 116.783 168.822C116.946 169.526 117.028 170.34 117.028 171.263C117.028 172.179 116.946 172.99 116.782 173.694C116.617 174.403 116.368 175.007 116.037 175.502C115.702 176.001 115.293 176.376 114.813 176.625C114.332 176.875 113.781 177 113.158 177C112.832 177 112.525 176.96 112.24 176.882C111.955 176.804 111.691 176.687 111.452 176.531C111.21 176.377 110.985 176.178 110.779 175.936C110.649 175.784 110.525 175.615 110.409 175.429L110.396 175.697L110.318 176.768H107.824V160.844H107.932L107.932 160.844ZM127.999 172.064H122.086C122.114 172.512 122.188 172.906 122.306 173.247C122.433 173.614 122.613 173.92 122.842 174.164C123.068 174.405 123.345 174.588 123.669 174.709C123.996 174.831 124.375 174.893 124.804 174.893C125.024 174.893 125.243 174.877 125.46 174.845C125.678 174.812 125.894 174.764 126.107 174.702C126.322 174.639 126.536 174.559 126.747 174.464C126.959 174.369 127.169 174.257 127.376 174.129L127.541 174.026V176.246L127.481 176.276C127.245 176.395 127.004 176.499 126.76 176.587C126.514 176.676 126.265 176.749 126.014 176.807C125.764 176.863 125.505 176.907 125.24 176.935C124.975 176.964 124.703 176.978 124.426 176.978C123.617 176.978 122.898 176.854 122.269 176.608C121.638 176.361 121.099 175.99 120.653 175.496C120.209 175.001 119.875 174.403 119.654 173.703C119.434 173.006 119.323 172.208 119.323 171.308C119.323 170.426 119.426 169.635 119.63 168.935C119.836 168.233 120.145 167.624 120.558 167.107C120.973 166.588 121.463 166.198 122.029 165.938C122.593 165.678 123.232 165.547 123.946 165.547C124.575 165.547 125.144 165.674 125.651 165.926C126.158 166.177 126.604 166.555 126.986 167.056C127.367 167.558 127.654 168.142 127.844 168.809C128.033 169.474 128.128 170.222 128.128 171.052L128.125 171.492L128.102 172.063H127.999L127.999 172.064ZM125.539 170.315V170.227C125.539 169.784 125.503 169.395 125.431 169.06C125.36 168.73 125.255 168.451 125.114 168.226C124.977 168.006 124.809 167.842 124.608 167.733C124.407 167.625 124.171 167.57 123.901 167.57C123.617 167.57 123.367 167.626 123.152 167.739C122.937 167.851 122.753 168.022 122.6 168.25C122.444 168.483 122.319 168.779 122.226 169.138C122.139 169.475 122.078 169.868 122.046 170.315H125.539H125.539ZM136.688 165.698V168.179H136.58C136.54 168.179 136.444 168.168 136.289 168.147L136.092 168.124L135.946 168.116C135.57 168.116 135.245 168.176 134.969 168.294C134.697 168.411 134.471 168.588 134.292 168.823C134.112 169.059 133.977 169.36 133.886 169.724C133.794 170.095 133.747 170.531 133.747 171.032V176.768H131.032V168.386L131.027 167.689C131.023 167.47 131.017 167.258 131.008 167.054L130.975 166.463L130.921 165.78L133.412 165.768L133.439 165.932C133.463 166.261 133.482 166.552 133.494 166.804L133.511 167.258C133.603 167.084 133.704 166.924 133.812 166.777C134.007 166.512 134.23 166.288 134.479 166.108C134.727 165.928 135 165.792 135.297 165.703C135.594 165.614 135.916 165.569 136.261 165.569C136.32 165.569 136.382 165.579 136.44 165.585L136.688 165.59V165.698ZM149.594 163.979C149.13 163.979 148.721 164.091 148.368 164.314C148.013 164.538 147.71 164.879 147.46 165.334C147.209 165.792 147.018 166.358 146.892 167.028C146.764 167.702 146.7 168.482 146.7 169.366C146.7 170.252 146.763 171.033 146.89 171.706C147.016 172.375 147.205 172.94 147.457 173.398C147.703 173.849 148.005 174.188 148.361 174.412C148.715 174.634 149.127 174.746 149.595 174.746C150.063 174.746 150.475 174.634 150.829 174.412C151.185 174.188 151.487 173.849 151.733 173.398C151.985 172.94 152.174 172.375 152.3 171.706C152.427 171.032 152.489 170.252 152.489 169.366C152.489 168.485 152.425 167.708 152.298 167.035C152.171 166.365 151.981 165.799 151.73 165.336C151.48 164.882 151.176 164.542 150.82 164.315C150.467 164.091 150.058 163.978 149.594 163.978L149.594 163.979ZM149.594 161.747C150.53 161.747 151.362 161.915 152.089 162.25C152.818 162.586 153.441 163.09 153.957 163.76C154.471 164.427 154.858 165.231 155.115 166.17C155.37 167.104 155.499 168.172 155.499 169.373C155.499 170.575 155.37 171.643 155.114 172.576C154.857 173.513 154.471 174.314 153.957 174.977C153.441 175.643 152.818 176.144 152.089 176.478C151.362 176.811 150.53 176.979 149.595 176.979C147.719 176.979 146.265 176.313 145.233 174.984C144.719 174.323 144.332 173.521 144.075 172.582C143.819 171.649 143.691 170.579 143.691 169.373C143.691 168.172 143.819 167.104 144.075 166.17C144.332 165.231 144.718 164.427 145.233 163.76C145.749 163.09 146.371 162.586 147.1 162.25C147.828 161.915 148.659 161.747 149.595 161.747H149.594ZM163.806 160.959V162.95L163.383 162.866L163.14 162.827L162.982 162.809L162.837 162.803C162.603 162.803 162.404 162.832 162.243 162.889C162.088 162.944 161.966 163.026 161.877 163.134C161.788 163.244 161.72 163.4 161.673 163.603C161.625 163.813 161.601 164.072 161.601 164.378V165.779H163.533V167.822H161.601V176.768H158.886V167.822H157.08V165.779H158.886V164.14C158.886 163.547 158.948 163.03 159.071 162.592C159.195 162.149 159.384 161.784 159.634 161.503C159.888 161.218 160.214 161.004 160.611 160.864C161.003 160.724 161.465 160.655 161.997 160.655C162.14 160.655 162.285 160.658 162.43 160.666C162.574 160.673 162.718 160.685 162.862 160.701C163.01 160.717 163.157 160.738 163.301 160.764C163.441 160.789 163.582 160.819 163.723 160.854L163.806 160.874V160.959L163.806 160.959ZM173.979 170.216V174.536H174.928C175.375 174.536 175.762 174.493 176.087 174.406C176.406 174.32 176.665 174.193 176.864 174.024C177.061 173.856 177.21 173.638 177.308 173.372C177.409 173.1 177.459 172.775 177.459 172.397C177.459 171.622 177.265 171.067 176.877 170.728C176.683 170.56 176.426 170.432 176.106 170.347C175.779 170.26 175.386 170.216 174.928 170.216H173.979ZM173.979 164.21V168.11H174.886C175.286 168.11 175.631 168.069 175.922 167.989C176.208 167.91 176.443 167.792 176.625 167.636C176.803 167.481 176.938 167.28 177.027 167.035C177.119 166.785 177.164 166.486 177.164 166.139C177.164 165.797 177.117 165.504 177.023 165.259C176.93 165.019 176.791 164.823 176.606 164.673C176.419 164.52 176.169 164.405 175.858 164.328C175.54 164.25 175.157 164.21 174.71 164.21H173.979H173.979ZM171.351 161.978H175.215C176.002 161.978 176.691 162.055 177.28 162.211C177.873 162.367 178.368 162.603 178.761 162.919C179.155 163.237 179.452 163.636 179.649 164.115C179.844 164.591 179.943 165.146 179.943 165.779C179.943 166.23 179.885 166.642 179.769 167.015C179.652 167.39 179.477 167.726 179.243 168.019C179.01 168.313 178.727 168.557 178.396 168.749C178.185 168.872 177.954 168.974 177.704 169.054C178.026 169.141 178.319 169.254 178.579 169.391C178.956 169.59 179.269 169.842 179.516 170.145C179.764 170.449 179.951 170.808 180.074 171.22C180.196 171.629 180.257 172.093 180.257 172.611C180.257 173.315 180.148 173.93 179.93 174.454C179.711 174.98 179.381 175.415 178.941 175.755C178.504 176.094 177.949 176.349 177.276 176.518C176.609 176.685 175.826 176.768 174.927 176.768H171.242V161.978H171.35H171.351ZM190.367 162.323L190.237 164.698L190.096 164.639C189.858 164.54 189.627 164.454 189.404 164.38C189.183 164.306 188.966 164.243 188.758 164.193C188.551 164.144 188.349 164.105 188.155 164.08C187.963 164.055 187.776 164.042 187.596 164.042C187.26 164.042 186.964 164.078 186.709 164.148C186.458 164.218 186.246 164.322 186.075 164.459C185.905 164.596 185.776 164.761 185.692 164.955C185.605 165.151 185.562 165.378 185.562 165.636C185.562 165.824 185.594 166.005 185.657 166.175C185.72 166.347 185.816 166.511 185.943 166.667C186.073 166.823 186.288 167.015 186.586 167.241C186.89 167.471 187.276 167.733 187.743 168.026L187.957 168.159C188.995 168.82 189.775 169.51 190.295 170.228C190.821 170.954 191.085 171.71 191.085 172.496C191.085 173.164 190.973 173.772 190.748 174.316C190.523 174.862 190.186 175.342 189.737 175.757C189.289 176.172 188.771 176.483 188.185 176.69C187.602 176.897 186.95 177 186.231 177C185.94 177 185.647 176.984 185.355 176.953C185.061 176.922 184.769 176.874 184.48 176.812C184.19 176.751 183.913 176.676 183.649 176.59C183.384 176.504 183.13 176.405 182.887 176.294L182.817 176.262L183.034 173.776L183.18 173.858C183.431 173.999 183.681 174.122 183.927 174.227C184.176 174.333 184.424 174.422 184.668 174.492C184.909 174.562 185.151 174.616 185.392 174.651C185.632 174.687 185.871 174.705 186.109 174.705C186.444 174.705 186.742 174.664 187.004 174.583C187.262 174.503 187.487 174.383 187.677 174.223C187.866 174.064 188.008 173.878 188.103 173.667C188.197 173.456 188.244 173.216 188.244 172.947C188.244 172.528 188.067 172.102 187.711 171.669C187.347 171.226 186.796 170.777 186.063 170.323L185.573 170.015C185.016 169.662 184.547 169.324 184.168 168.999C183.785 168.671 183.489 168.355 183.282 168.052C183.075 167.746 182.918 167.411 182.813 167.049C182.71 166.688 182.658 166.3 182.658 165.884C182.658 165.254 182.765 164.687 182.979 164.185C183.193 163.681 183.515 163.241 183.944 162.867C184.372 162.493 184.877 162.213 185.456 162.026C186.033 161.841 186.686 161.748 187.41 161.748C187.651 161.748 187.894 161.758 188.137 161.777C188.373 161.797 188.615 161.827 188.856 161.868C189.099 161.907 189.342 161.956 189.581 162.014C189.821 162.072 190.058 162.139 190.292 162.214L190.372 162.24L190.367 162.323H190.367ZM203.494 162.476L203.381 164.927L203.223 164.826C203.026 164.7 202.827 164.59 202.626 164.498C202.423 164.406 202.218 164.332 202.014 164.276C201.805 164.22 201.58 164.176 201.337 164.148C201.094 164.119 200.833 164.105 200.555 164.105C199.936 164.105 199.385 164.218 198.903 164.443C198.422 164.668 198.007 165.006 197.658 165.456C197.308 165.911 197.044 166.455 196.869 167.087C196.692 167.722 196.603 168.449 196.603 169.265C196.603 170.127 196.696 170.893 196.88 171.56C197.063 172.221 197.338 172.788 197.704 173.259C198.068 173.726 198.504 174.078 199.011 174.311C199.52 174.545 200.104 174.662 200.762 174.662C201.204 174.662 201.636 174.601 202.059 174.478C202.27 174.417 202.481 174.34 202.691 174.247C202.904 174.154 203.119 174.043 203.333 173.918L203.489 173.827L203.579 176.397L203.507 176.425C203.263 176.519 203.015 176.601 202.764 176.67C202.511 176.74 202.254 176.798 201.995 176.844C201.731 176.889 201.461 176.923 201.187 176.945C200.912 176.967 200.629 176.979 200.339 176.979C199.324 176.979 198.408 176.806 197.59 176.461C196.772 176.115 196.054 175.596 195.438 174.906C194.824 174.218 194.362 173.412 194.055 172.492C193.748 171.573 193.594 170.54 193.594 169.395C193.594 168.225 193.744 167.174 194.044 166.245C194.345 165.313 194.797 164.502 195.399 163.814C196.003 163.125 196.713 162.608 197.528 162.263C198.341 161.919 199.259 161.747 200.279 161.747C200.532 161.747 200.79 161.76 201.051 161.785C201.31 161.81 201.569 161.847 201.825 161.896C202.084 161.947 202.348 162.012 202.616 162.091C202.881 162.17 203.151 162.263 203.426 162.371L203.498 162.399L203.495 162.476H203.494ZM206.615 161.978H209.348V176.768H206.507V161.978H206.616H206.615ZM217.884 170H222.78V172.233H217.776V170H217.884ZM236.464 169.02C236.768 169.094 237.049 169.195 237.306 169.324C237.688 169.516 238.016 169.768 238.291 170.079C238.565 170.393 238.771 170.75 238.908 171.15C239.044 171.549 239.113 171.991 239.113 172.475C239.113 173.151 238.997 173.764 238.765 174.312C238.532 174.861 238.183 175.344 237.719 175.758C237.255 176.171 236.718 176.482 236.109 176.689C235.502 176.895 234.824 176.999 234.074 176.999C233.748 176.999 233.432 176.987 233.125 176.962C232.819 176.938 232.519 176.9 232.225 176.851C231.932 176.8 231.649 176.736 231.376 176.661C231.103 176.586 230.84 176.497 230.587 176.396L230.513 176.367L230.672 173.95L230.815 174.018C231.062 174.135 231.305 174.236 231.539 174.322C231.779 174.409 232.016 174.482 232.245 174.539C232.469 174.594 232.7 174.636 232.935 174.663C233.168 174.69 233.407 174.704 233.65 174.704C234.476 174.704 235.106 174.5 235.54 174.093C235.754 173.892 235.916 173.645 236.024 173.354C236.133 173.06 236.188 172.718 236.188 172.33C236.188 171.966 236.131 171.651 236.019 171.386C235.908 171.123 235.741 170.906 235.52 170.736C235.296 170.565 235.006 170.435 234.654 170.348C234.298 170.26 233.875 170.216 233.387 170.216C233.034 170.22 232.697 170.241 232.346 170.266L232.334 168.018C232.671 168.039 232.986 168.046 233.324 168.046C233.795 168.046 234.207 168.002 234.56 167.913C234.908 167.825 235.199 167.693 235.432 167.519C235.663 167.348 235.835 167.136 235.95 166.884C236.066 166.63 236.124 166.331 236.124 165.991C236.124 165.655 236.078 165.36 235.986 165.109C235.895 164.862 235.759 164.655 235.578 164.489C235.398 164.32 235.174 164.193 234.908 164.107C234.638 164.021 234.323 163.978 233.964 163.978C233.736 163.978 233.508 163.994 233.281 164.026C233.053 164.058 232.825 164.107 232.6 164.17C232.375 164.233 232.145 164.315 231.914 164.415C231.685 164.513 231.454 164.629 231.221 164.762L231.075 164.846L230.867 162.479L230.943 162.45C231.256 162.329 231.56 162.224 231.854 162.136C232.152 162.047 232.444 161.973 232.728 161.916C233.012 161.86 233.297 161.818 233.582 161.789C233.867 161.76 234.148 161.746 234.426 161.746C235.11 161.746 235.726 161.835 236.273 162.012C236.823 162.189 237.303 162.457 237.713 162.812C238.123 163.17 238.432 163.591 238.637 164.073C238.842 164.554 238.944 165.096 238.944 165.698C238.944 166.134 238.88 166.538 238.75 166.908C238.621 167.277 238.427 167.613 238.169 167.913C237.913 168.215 237.604 168.468 237.246 168.674C237.007 168.81 236.746 168.926 236.463 169.02L236.464 169.02ZM246.959 169.418C246.668 169.418 246.414 169.474 246.197 169.585C245.98 169.696 245.797 169.862 245.649 170.084C245.498 170.31 245.384 170.593 245.307 170.932C245.23 171.273 245.191 171.673 245.191 172.128C245.191 172.581 245.23 172.98 245.307 173.322C245.384 173.662 245.498 173.947 245.649 174.176C245.797 174.401 245.98 174.57 246.197 174.683C246.414 174.795 246.668 174.852 246.959 174.852C247.243 174.852 247.493 174.797 247.705 174.688C247.917 174.58 248.096 174.416 248.241 174.197C248.391 173.974 248.505 173.697 248.58 173.366C248.657 173.03 248.696 172.638 248.696 172.191C248.696 171.724 248.658 171.315 248.583 170.965C248.508 170.618 248.396 170.329 248.247 170.097C248.102 169.87 247.922 169.7 247.71 169.587C247.497 169.475 247.246 169.419 246.959 169.419V169.418ZM250.777 162.343L250.599 164.64L250.448 164.547C250.286 164.448 250.116 164.36 249.939 164.284C249.765 164.208 249.583 164.144 249.394 164.09C249.208 164.04 249.019 164.001 248.829 163.975C248.641 163.95 248.451 163.937 248.261 163.937C247.754 163.937 247.309 164.031 246.928 164.22C246.548 164.408 246.227 164.691 245.966 165.07C245.703 165.452 245.498 165.935 245.352 166.518C245.224 167.027 245.141 167.613 245.103 168.274C245.205 168.167 245.312 168.068 245.426 167.977C245.619 167.821 245.83 167.689 246.057 167.579C246.282 167.469 246.518 167.386 246.761 167.332C247.008 167.276 247.262 167.249 247.522 167.249C248.1 167.249 248.625 167.357 249.095 167.571C249.565 167.785 249.98 168.107 250.339 168.534C250.695 168.961 250.964 169.456 251.143 170.017C251.321 170.576 251.41 171.202 251.41 171.893C251.41 172.653 251.312 173.34 251.116 173.952C250.918 174.568 250.622 175.109 250.226 175.575C249.831 176.042 249.369 176.393 248.844 176.627C248.319 176.861 247.731 176.978 247.08 176.978C246.295 176.978 245.606 176.831 245.016 176.536C244.424 176.241 243.932 175.797 243.54 175.208C243.15 174.623 242.857 173.89 242.663 173.011C242.47 172.135 242.373 171.113 242.373 169.947C242.373 168.599 242.489 167.416 242.72 166.398C242.953 165.376 243.303 164.52 243.771 163.831C244.24 163.137 244.824 162.615 245.52 162.267C246.216 161.92 247.023 161.746 247.941 161.746C248.167 161.746 248.393 161.756 248.618 161.776C248.841 161.796 249.067 161.826 249.297 161.867C249.523 161.906 249.754 161.956 249.989 162.017C250.222 162.078 250.46 162.15 250.703 162.231L250.783 162.258L250.776 162.341L250.777 162.343ZM258.473 163.979C258.157 163.979 257.884 164.082 257.654 164.287C257.416 164.5 257.22 164.821 257.065 165.251C256.908 165.69 256.788 166.252 256.709 166.937C256.63 167.623 256.589 168.433 256.589 169.366C256.589 170.301 256.629 171.112 256.709 171.798C256.789 172.481 256.909 173.043 257.069 173.48C257.225 173.909 257.422 174.23 257.659 174.44C257.889 174.644 258.161 174.746 258.473 174.746C258.787 174.746 259.06 174.644 259.291 174.44C259.529 174.229 259.727 173.909 259.883 173.48C260.043 173.043 260.163 172.481 260.243 171.798C260.323 171.112 260.363 170.301 260.363 169.366C260.363 167.506 260.201 166.136 259.877 165.252C259.72 164.821 259.522 164.5 259.286 164.288C259.055 164.082 258.783 163.979 258.473 163.979L258.473 163.979ZM258.473 161.747C259.228 161.747 259.896 161.913 260.476 162.244C261.055 162.575 261.544 163.07 261.943 163.728C262.336 164.38 262.631 165.18 262.827 166.124C263.022 167.064 263.12 168.147 263.12 169.373C263.12 170.592 263.021 171.67 262.824 172.606C262.626 173.546 262.328 174.344 261.931 174.997C261.529 175.656 261.039 176.151 260.462 176.481C259.884 176.812 259.22 176.978 258.472 176.978C256.962 176.978 255.808 176.32 255.01 175.004C254.616 174.352 254.321 173.554 254.125 172.612C253.93 171.675 253.831 170.595 253.831 169.373C253.831 168.147 253.929 167.064 254.125 166.124C254.321 165.18 254.616 164.38 255.009 163.728C255.407 163.07 255.896 162.574 256.474 162.244C257.052 161.913 257.718 161.747 258.472 161.747H258.473ZM265.586 170H270.482V172.233H265.478V170H265.586ZM277.488 163.979C277.172 163.979 276.899 164.082 276.669 164.287C276.432 164.5 276.235 164.821 276.081 165.251C275.923 165.69 275.804 166.252 275.725 166.937C275.645 167.623 275.605 168.433 275.605 169.366C275.605 170.301 275.645 171.112 275.725 171.798C275.805 172.481 275.925 173.043 276.085 173.48C276.241 173.909 276.438 174.23 276.675 174.44C276.905 174.644 277.176 174.746 277.489 174.746C277.803 174.746 278.076 174.644 278.307 174.44C278.545 174.229 278.743 173.909 278.899 173.48C279.059 173.043 279.179 172.481 279.259 171.798C279.339 171.112 279.379 170.301 279.379 169.366C279.379 167.506 279.217 166.136 278.892 165.252C278.736 164.821 278.538 164.5 278.301 164.288C278.071 164.082 277.799 163.979 277.489 163.979L277.488 163.979ZM277.488 161.747C278.243 161.747 278.912 161.913 279.491 162.244C280.071 162.575 280.56 163.07 280.958 163.728C281.351 164.38 281.646 165.18 281.842 166.124C282.038 167.064 282.136 168.147 282.136 169.373C282.136 170.592 282.037 171.67 281.84 172.606C281.642 173.546 281.344 174.344 280.947 174.997C280.546 175.656 280.055 176.151 279.478 176.481C278.9 176.812 278.236 176.978 277.488 176.978C275.978 176.978 274.824 176.32 274.026 175.004C273.632 174.352 273.337 173.554 273.141 172.612C272.946 171.675 272.848 170.595 272.848 169.373C272.848 168.147 272.946 167.064 273.141 166.124C273.337 165.18 273.633 164.38 274.025 163.728C274.424 163.07 274.912 162.574 275.491 162.244C276.069 161.913 276.735 161.747 277.489 161.747H277.488ZM289.156 163.979C288.84 163.979 288.567 164.083 288.337 164.288C288.1 164.499 287.903 164.821 287.749 165.252C287.591 165.691 287.472 166.253 287.393 166.937C287.313 167.624 287.273 168.434 287.273 169.367C287.273 170.301 287.313 171.112 287.393 171.799C287.473 172.482 287.593 173.044 287.752 173.481C287.909 173.909 288.106 174.23 288.343 174.44C288.573 174.644 288.844 174.746 289.157 174.746C289.471 174.746 289.744 174.644 289.975 174.44C290.213 174.23 290.411 173.909 290.567 173.481C290.726 173.043 290.846 172.482 290.926 171.799C291.006 171.112 291.047 170.301 291.047 169.367C291.047 167.507 290.884 166.136 290.56 165.252C290.403 164.822 290.206 164.5 289.969 164.288C289.739 164.083 289.467 163.979 289.157 163.979H289.156ZM289.156 161.747C289.911 161.747 290.58 161.913 291.159 162.244C291.738 162.575 292.228 163.07 292.626 163.728C293.019 164.38 293.314 165.18 293.51 166.124C293.705 167.064 293.804 168.147 293.804 169.373C293.804 170.592 293.705 171.67 293.508 172.606C293.31 173.546 293.012 174.344 292.615 174.997C292.213 175.656 291.723 176.151 291.146 176.481C290.568 176.812 289.904 176.978 289.156 176.978C287.646 176.978 286.492 176.32 285.693 175.004C285.3 174.352 285.005 173.554 284.809 172.612C284.614 171.675 284.516 170.595 284.516 169.373C284.516 168.147 284.614 167.064 284.809 166.124C285.005 165.18 285.3 164.38 285.693 163.728C286.091 163.07 286.58 162.574 287.158 162.244C287.736 161.913 288.403 161.747 289.157 161.747H289.156ZM300.823 163.979C300.508 163.979 300.235 164.083 300.004 164.288C299.767 164.499 299.57 164.821 299.416 165.252C299.258 165.691 299.139 166.253 299.06 166.937C298.98 167.624 298.94 168.434 298.94 169.367C298.94 170.301 298.98 171.112 299.06 171.799C299.14 172.482 299.26 173.044 299.42 173.481C299.576 173.909 299.773 174.23 300.01 174.44C300.24 174.644 300.512 174.746 300.824 174.746C301.138 174.746 301.411 174.644 301.642 174.44C301.881 174.23 302.079 173.909 302.235 173.481C302.394 173.043 302.514 172.482 302.594 171.799C302.674 171.112 302.714 170.301 302.714 169.367C302.714 167.507 302.552 166.136 302.227 165.252C302.071 164.822 301.873 164.5 301.636 164.288C301.406 164.083 301.135 163.979 300.824 163.979H300.823ZM300.823 161.747C301.578 161.747 302.247 161.913 302.827 162.244C303.406 162.575 303.895 163.07 304.293 163.728C304.686 164.38 304.981 165.18 305.178 166.124C305.373 167.064 305.471 168.147 305.471 169.373C305.471 170.592 305.372 171.67 305.175 172.606C304.977 173.546 304.679 174.344 304.282 174.997C303.881 175.656 303.39 176.151 302.813 176.481C302.235 176.812 301.571 176.978 300.823 176.978C299.313 176.978 298.159 176.32 297.361 175.004C296.967 174.352 296.672 173.554 296.476 172.612C296.281 171.675 296.183 170.595 296.183 169.373C296.183 168.147 296.281 167.064 296.476 166.124C296.672 165.18 296.968 164.38 297.36 163.728C297.758 163.07 298.247 162.574 298.825 162.244C299.404 161.913 300.07 161.747 300.823 161.747ZM311.158 174.494H316.404V176.768H307.998V174.5L308.028 174.426C308.993 173.408 309.821 172.484 310.509 171.656C311.196 170.829 311.745 170.095 312.156 169.455C312.563 168.819 312.868 168.227 313.072 167.68C313.273 167.137 313.374 166.637 313.374 166.181C313.374 165.861 313.328 165.574 313.238 165.322C313.149 165.073 313.013 164.853 312.834 164.667C312.656 164.481 312.446 164.34 312.207 164.246C311.966 164.152 311.693 164.105 311.389 164.105C311.167 164.105 310.944 164.125 310.723 164.167C310.5 164.207 310.274 164.27 310.047 164.354C309.817 164.438 309.587 164.543 309.356 164.665C309.129 164.787 308.899 164.929 308.668 165.09L308.517 165.196L308.264 162.699L308.325 162.664C308.58 162.518 308.847 162.388 309.126 162.275C309.405 162.162 309.698 162.065 310.004 161.985C310.309 161.906 310.614 161.846 310.918 161.806C311.222 161.767 311.526 161.747 311.827 161.747C312.465 161.747 313.043 161.841 313.56 162.027C314.078 162.215 314.534 162.497 314.929 162.872C315.322 163.248 315.618 163.684 315.815 164.177C316.012 164.67 316.11 165.219 316.11 165.824C316.11 166.429 316.007 167.062 315.8 167.722C315.594 168.379 315.285 169.063 314.874 169.773C314.464 170.484 313.935 171.249 313.287 172.065C312.684 172.826 311.974 173.636 311.158 174.494L311.158 174.494ZM324.873 165.227L321.531 171.554H324.873V165.227ZM324.456 161.978H327.441V171.554H329.016V173.681H327.441V176.768H324.81V173.681H319.329V171.266L319.342 171.215L324.392 161.978H324.456L324.456 161.978ZM331.272 170H336.168V172.233H331.164V170H331.272ZM343.174 163.979C342.859 163.979 342.586 164.083 342.355 164.288C342.118 164.499 341.922 164.821 341.767 165.252C341.61 165.691 341.49 166.253 341.411 166.937C341.331 167.624 341.291 168.434 341.291 169.367C341.291 170.301 341.331 171.112 341.411 171.799C341.491 172.482 341.611 173.044 341.771 173.481C341.927 173.909 342.124 174.23 342.361 174.44C342.591 174.644 342.862 174.746 343.175 174.746C343.489 174.746 343.762 174.644 343.993 174.44C344.232 174.23 344.429 173.909 344.585 173.481C344.745 173.043 344.865 172.482 344.944 171.799C345.024 171.112 345.065 170.301 345.065 169.367C345.065 167.507 344.903 166.136 344.578 165.252C344.422 164.822 344.224 164.5 343.987 164.288C343.757 164.083 343.485 163.979 343.175 163.979H343.174ZM343.174 161.747C343.929 161.747 344.598 161.913 345.177 162.244C345.757 162.575 346.246 163.07 346.644 163.728C347.037 164.38 347.332 165.18 347.528 166.124C347.724 167.064 347.822 168.147 347.822 169.373C347.822 170.592 347.723 171.67 347.526 172.606C347.328 173.546 347.03 174.344 346.633 174.997C346.231 175.656 345.741 176.151 345.164 176.481C344.586 176.812 343.922 176.978 343.174 176.978C341.664 176.978 340.51 176.32 339.712 175.004C339.318 174.352 339.022 173.554 338.827 172.612C338.632 171.675 338.534 170.595 338.534 169.373C338.534 168.147 338.631 167.064 338.827 166.124C339.023 165.18 339.319 164.38 339.711 163.728C340.11 163.07 340.598 162.574 341.177 162.244C341.755 161.913 342.421 161.747 343.175 161.747H343.174ZM354.842 163.979C354.526 163.979 354.253 164.083 354.023 164.288C353.785 164.499 353.589 164.821 353.435 165.252C353.277 165.691 353.158 166.253 353.078 166.937C352.999 167.624 352.958 168.434 352.958 169.367C352.958 170.301 352.999 171.112 353.079 171.799C353.159 172.482 353.279 173.044 353.438 173.481C353.595 173.909 353.792 174.23 354.029 174.44C354.259 174.644 354.53 174.746 354.842 174.746C355.157 174.746 355.43 174.644 355.661 174.44C355.899 174.23 356.097 173.909 356.253 173.481C356.412 173.043 356.532 172.482 356.612 171.799C356.692 171.112 356.733 170.301 356.733 169.367C356.733 167.507 356.57 166.136 356.246 165.252C356.089 164.822 355.892 164.5 355.655 164.288C355.424 164.083 355.153 163.979 354.842 163.979H354.842ZM354.842 161.747C355.597 161.747 356.266 161.913 356.845 162.244C357.424 162.575 357.914 163.07 358.312 163.728C358.705 164.38 359 165.18 359.196 166.124C359.391 167.064 359.489 168.147 359.489 169.373C359.489 170.592 359.391 171.67 359.194 172.606C358.996 173.546 358.698 174.344 358.301 174.997C357.899 175.656 357.409 176.151 356.832 176.481C356.254 176.812 355.59 176.978 354.842 176.978C353.332 176.978 352.177 176.32 351.379 175.004C350.986 174.352 350.691 173.554 350.495 172.612C350.3 171.675 350.202 170.595 350.202 169.373C350.202 168.147 350.3 167.064 350.495 166.124C350.691 165.18 350.986 164.38 351.379 163.728C351.777 163.07 352.266 162.574 352.844 162.244C353.423 161.913 354.089 161.747 354.842 161.747H354.842ZM366.509 163.979C366.194 163.979 365.921 164.083 365.69 164.288C365.453 164.499 365.256 164.821 365.102 165.252C364.944 165.691 364.825 166.253 364.746 166.937C364.666 167.624 364.626 168.434 364.626 169.367C364.626 170.301 364.666 171.112 364.746 171.799C364.826 172.482 364.946 173.044 365.106 173.481C365.262 173.909 365.459 174.23 365.696 174.44C365.926 174.644 366.197 174.746 366.51 174.746C366.824 174.746 367.097 174.644 367.328 174.44C367.567 174.23 367.764 173.909 367.92 173.481C368.08 173.043 368.2 172.482 368.28 171.799C368.36 171.112 368.4 170.301 368.4 169.367C368.4 167.507 368.238 166.136 367.913 165.252C367.757 164.822 367.559 164.5 367.322 164.288C367.092 164.083 366.82 163.979 366.51 163.979H366.509ZM366.509 161.747C367.264 161.747 367.933 161.913 368.512 162.244C369.092 162.575 369.581 163.07 369.979 163.728C370.372 164.38 370.667 165.18 370.863 166.124C371.059 167.064 371.157 168.147 371.157 169.373C371.157 170.592 371.058 171.67 370.861 172.606C370.663 173.546 370.365 174.344 369.968 174.997C369.567 175.656 369.076 176.151 368.499 176.481C367.921 176.812 367.257 176.978 366.509 176.978C364.999 176.978 363.845 176.32 363.047 175.004C362.653 174.352 362.358 173.554 362.162 172.612C361.967 171.675 361.869 170.595 361.869 169.373C361.869 168.147 361.967 167.064 362.162 166.124C362.358 165.18 362.654 164.38 363.046 163.728C363.444 163.07 363.933 162.574 364.511 162.244C365.09 161.913 365.756 161.747 366.509 161.747ZM5.67047 146.002C5.67047 147.062 6.43786 147.717 7.47623 147.717H12.1265C15.2412 147.717 17.3634 146.002 17.3634 142.819C17.3634 140.855 15.851 139.252 13.9323 138.981V138.936C15.3773 138.259 16.0318 137.198 16.0318 135.618C16.0318 133.225 14.1354 131.645 11.7881 131.645H7.45389C6.41552 131.645 5.67047 132.255 5.67047 133.338V146.002V146.002ZM9.05653 134.625H10.8172C11.8101 134.625 12.6457 135.167 12.6457 136.228C12.6457 137.356 11.9234 138.011 10.8172 138.011H9.05653V134.625V134.625ZM9.05653 140.99H11.4493C13.0296 140.99 13.8421 141.713 13.8421 142.774C13.8421 144.038 12.9394 144.738 11.7203 144.738H9.05653V140.99ZM20.1914 143.248C20.1914 146.137 22.1101 147.988 25.5413 147.988C28.9724 147.988 30.8911 146.137 30.8911 143.248V137.379C30.8911 136.295 30.2139 135.573 29.2658 135.573C28.318 135.573 27.6404 136.295 27.6404 137.379V143.18C27.6404 144.535 26.6243 145.279 25.5409 145.279C24.4574 145.279 23.4414 144.534 23.4414 143.18V137.379C23.4414 136.295 22.7642 135.573 21.816 135.573C20.8682 135.573 20.1906 136.295 20.1906 137.379V143.248H20.1914ZM42.568 137.785C42.568 136.182 40.1074 135.437 38.5047 135.437C35.9316 135.437 34.103 136.972 34.103 139.23C34.103 142.954 39.7466 142.729 39.7466 144.218C39.7466 144.828 39.4529 145.144 38.4596 145.144C36.9248 145.144 36.3601 144.038 35.0963 144.038C34.1932 144.038 33.6968 144.986 33.6968 145.483C33.6968 146.95 36.4057 147.988 38.2338 147.988C41.0332 147.988 42.8613 146.34 42.8613 144.173C42.8613 140.471 37.2181 140.697 37.2181 139.185C37.2181 138.552 37.7377 138.281 38.3244 138.281C39.3851 138.281 40.6265 139.23 41.2359 139.23C42.0033 139.23 42.568 138.53 42.568 137.785ZM45.6215 146.047C45.6215 147.13 46.2987 147.853 47.2468 147.853C48.195 147.853 48.8722 147.13 48.8722 146.047V137.379C48.8722 136.295 48.1954 135.573 47.2468 135.573C46.2987 135.573 45.6215 136.295 45.6215 137.379V146.047ZM47.2468 130.697C46.2763 130.697 45.4183 131.554 45.4183 132.48C45.4183 133.474 46.2759 134.354 47.2468 134.354C48.2625 134.354 49.0754 133.496 49.0754 132.48C49.0754 131.533 48.2178 130.697 47.2468 130.697ZM52.3319 146.047C52.3319 147.13 53.0092 147.853 53.9573 147.853C54.9055 147.853 55.5827 147.13 55.5827 146.047V140.381C55.5827 139.117 56.3278 138.146 57.6595 138.146C58.8331 138.146 59.7813 138.868 59.7813 140.381V146.047C59.7813 147.13 60.4589 147.853 61.4067 147.853C62.3548 147.853 63.0321 147.13 63.0321 146.047V139.817C63.0321 137.063 61.1357 135.437 58.5853 135.437C57.0501 135.437 56.0796 135.889 55.4474 136.769C55.3345 136.024 54.793 135.573 53.9573 135.573C53.0096 135.573 52.3319 136.295 52.3319 137.378V146.046V146.047ZM76.0853 142.796C77.0785 142.796 77.5075 142.322 77.5075 141.351C77.5075 138.643 75.1826 135.437 71.6608 135.437C68.2297 135.437 65.8369 138.44 65.8369 141.735C65.8369 145.325 68.2748 147.988 71.9318 147.988C74.3469 147.988 77.2366 146.634 77.2366 145.234C77.2366 144.535 76.6049 143.835 75.9049 143.835C75.0473 143.835 73.896 145.144 72.2255 145.144C70.7131 145.144 69.3814 144.399 69.1555 142.796H76.0857L76.0853 142.796ZM69.0877 140.629C69.2457 139.252 70.2162 138.146 71.6608 138.146C73.1733 138.146 74.0764 139.207 74.2567 140.629H69.0877ZM88.4844 137.785C88.4844 136.182 86.0238 135.437 84.4211 135.437C81.848 135.437 80.0195 136.972 80.0195 139.23C80.0195 142.954 85.663 142.729 85.663 144.218C85.663 144.828 85.3693 145.144 84.376 145.144C82.8413 145.144 82.2766 144.038 81.0127 144.038C80.1101 144.038 79.6132 144.986 79.6132 145.483C79.6132 146.95 82.3221 147.988 84.1506 147.988C86.9496 147.988 88.7781 146.34 88.7781 144.173C88.7781 140.471 83.135 140.697 83.135 139.185C83.135 138.552 83.6542 138.281 84.2412 138.281C85.3019 138.281 86.5434 139.23 87.1532 139.23C87.9206 139.23 88.4852 138.53 88.4852 137.785H88.4844ZM99.7546 137.785C99.7546 136.182 97.294 135.437 95.6913 135.437C93.1182 135.437 91.2897 136.972 91.2897 139.23C91.2897 142.954 96.9332 142.729 96.9332 144.218C96.9332 144.828 96.6395 145.144 95.6462 145.144C94.1114 145.144 93.5468 144.038 92.2829 144.038C91.3803 144.038 90.8834 144.986 90.8834 145.483C90.8834 146.95 93.5923 147.988 95.4208 147.988C98.2202 147.988 100.048 146.34 100.048 144.173C100.048 140.471 94.4052 140.697 94.4052 139.185C94.4052 138.552 94.9243 138.281 95.5114 138.281C96.5725 138.281 97.8136 139.23 98.4233 139.23C99.1907 139.23 99.7554 138.53 99.7554 137.785H99.7546ZM117.007 131.599C114.004 131.599 111.409 133.563 111.409 136.724C111.409 141.961 118.948 140.358 118.948 143.022C118.948 144.128 118.136 144.963 116.646 144.963C115.179 144.963 113.914 144.083 112.853 144.083C111.928 144.083 111.341 144.805 111.341 145.686C111.341 147.808 115.088 148.214 116.826 148.214C119.941 148.214 122.605 146.205 122.605 142.976C122.605 137.152 115.065 138.643 115.065 136.317C115.065 135.369 115.946 134.85 116.916 134.85C118.271 134.85 118.993 135.527 119.918 135.527C120.844 135.527 121.431 134.737 121.431 133.857C121.431 132.073 118.271 131.599 117.006 131.599L117.007 131.599ZM130.963 135.663C127.532 135.663 125.139 138.665 125.139 141.961C125.139 145.347 127.464 148.214 130.963 148.214C134.462 148.214 136.787 145.347 136.787 141.961C136.787 138.665 134.394 135.663 130.963 135.663ZM130.963 138.643C132.746 138.643 133.536 140.403 133.536 141.961C133.536 143.518 132.724 145.234 130.963 145.234C129.202 145.234 128.389 143.518 128.389 141.961C128.389 140.403 129.179 138.643 130.963 138.643ZM149.141 137.717C149.141 136.137 146.454 135.663 145.168 135.663C141.736 135.663 139.344 138.666 139.344 141.961C139.344 145.347 141.669 148.214 145.168 148.214C146.341 148.214 149.141 147.649 149.141 145.979C149.141 145.212 148.509 144.557 147.741 144.557C147.357 144.557 146.138 145.234 145.326 145.234C143.565 145.234 142.594 143.564 142.594 141.961C142.594 140.291 143.475 138.643 145.326 138.643C146.364 138.643 147.086 139.275 147.899 139.275C148.666 139.275 149.141 138.395 149.141 137.717ZM151.878 146.273C151.878 147.356 152.555 148.078 153.503 148.078C154.452 148.078 155.129 147.356 155.129 146.273V137.605C155.129 136.521 154.452 135.799 153.503 135.799C152.555 135.799 151.878 136.521 151.878 137.605V146.273ZM153.503 130.923C152.533 130.923 151.675 131.78 151.675 132.706C151.675 133.699 152.533 134.58 153.503 134.58C154.519 134.58 155.332 133.722 155.332 132.706C155.332 131.758 154.474 130.923 153.503 130.923ZM169.695 137.92C169.695 137.085 169.695 135.798 168.137 135.798C167.348 135.798 166.67 136.363 166.58 137.153C165.857 136.137 164.683 135.663 163.487 135.663C160.508 135.663 158.115 138.395 158.115 141.961C158.115 145.618 160.44 148.214 163.487 148.214C164.729 148.214 165.745 147.695 166.58 146.702C166.806 147.559 167.189 148.078 168.137 148.078C169.695 148.078 169.695 146.792 169.695 145.957V137.92ZM161.365 141.961C161.365 140.404 162.155 138.643 163.939 138.643C165.654 138.643 166.445 140.404 166.445 141.961C166.445 143.519 165.632 145.234 163.939 145.234C162.178 145.234 161.365 143.519 161.365 141.961ZM173.155 146.273C173.155 147.356 173.832 148.078 174.78 148.078C175.729 148.078 176.406 147.356 176.406 146.273V132.367C176.406 131.284 175.729 130.562 174.78 130.562C173.832 130.562 173.155 131.284 173.155 132.367V146.273ZM189.211 139.681C189.211 144.354 192.394 147.988 196.976 147.988C198.646 147.988 202.055 147.492 202.055 145.325C202.055 144.805 201.581 143.789 200.565 143.789C199.64 143.789 198.872 144.738 196.976 144.738C194.199 144.738 192.732 142.435 192.732 139.749C192.732 136.995 194.177 134.625 196.976 134.625C198.872 134.625 199.504 135.415 200.43 135.415C201.265 135.415 201.829 134.715 201.829 133.902C201.829 131.916 198.624 131.374 196.976 131.374C192.371 131.374 189.211 134.986 189.211 139.681V139.681ZM210.549 135.438C207.118 135.438 204.725 138.44 204.725 141.736C204.725 145.122 207.05 147.989 210.549 147.989C214.048 147.989 216.373 145.122 216.373 141.736C216.373 138.44 213.98 135.438 210.549 135.438ZM210.549 138.418C212.332 138.418 213.122 140.178 213.122 141.736C213.122 143.293 212.309 145.009 210.549 145.009C208.788 145.009 207.975 143.293 207.975 141.736C207.975 140.178 208.765 138.418 210.549 138.418ZM219.404 146.047C219.404 147.131 220.081 147.853 221.029 147.853C221.977 147.853 222.654 147.131 222.654 146.047V140.381C222.654 139.072 223.241 138.147 224.573 138.147C225.747 138.147 226.469 139.072 226.469 140.381V146.047C226.469 147.131 227.147 147.853 228.095 147.853C229.043 147.853 229.72 147.131 229.72 146.047V140.381C229.72 139.072 230.443 138.147 231.639 138.147C232.813 138.147 233.535 139.072 233.535 140.381V146.047C233.535 147.131 234.213 147.853 235.161 147.853C236.109 147.853 236.786 147.131 236.786 146.047V139.817C236.786 136.973 234.98 135.438 232.339 135.438C231.234 135.438 229.811 136.047 228.908 137.085C228.051 136.002 226.899 135.438 225.545 135.438C224.348 135.438 223.31 135.935 222.52 136.792C222.407 136.025 221.865 135.573 221.03 135.573C220.082 135.573 219.404 136.295 219.404 137.379V146.047L219.404 146.047ZM240.29 150.833C240.29 151.916 240.968 152.639 241.915 152.639C242.864 152.639 243.541 151.916 243.541 150.833V146.86C244.398 147.605 245.505 147.988 246.52 147.988C249.793 147.988 251.871 144.941 251.871 141.871C251.871 138.71 250.132 135.437 246.633 135.437C245.414 135.437 244.15 135.934 243.541 136.927C243.338 136.069 242.819 135.573 241.915 135.573C240.968 135.573 240.29 136.295 240.29 137.378V150.832V150.833ZM243.541 141.623C243.541 140.043 244.353 138.418 246.092 138.418C247.785 138.418 248.62 140.201 248.62 141.736C248.62 143.248 247.785 145.009 246.092 145.009C244.308 145.009 243.541 143.203 243.541 141.623ZM254.857 146.047C254.857 147.131 255.533 147.853 256.482 147.853C257.43 147.853 258.107 147.131 258.107 146.047V132.142C258.107 131.058 257.43 130.336 256.482 130.336C255.534 130.336 254.857 131.058 254.857 132.142V146.047ZM261.522 146.047C261.522 147.131 262.199 147.853 263.147 147.853C264.096 147.853 264.773 147.131 264.773 146.047V137.379C264.773 136.296 264.096 135.573 263.147 135.573C262.199 135.573 261.522 136.296 261.522 137.379V146.047ZM263.147 130.697C262.177 130.697 261.319 131.555 261.319 132.481C261.319 133.474 262.176 134.354 263.147 134.354C264.163 134.354 264.976 133.496 264.976 132.481C264.976 131.533 264.118 130.697 263.147 130.697ZM279.339 137.695C279.339 136.86 279.339 135.573 277.781 135.573C276.992 135.573 276.314 136.138 276.224 136.927C275.501 135.912 274.327 135.438 273.131 135.438C270.152 135.438 267.759 138.169 267.759 141.736C267.759 145.393 270.084 147.989 273.131 147.989C274.372 147.989 275.388 147.469 276.224 146.476C276.45 147.334 276.833 147.853 277.781 147.853C279.339 147.853 279.339 146.566 279.339 145.732V137.695V137.695ZM271.009 141.736C271.009 140.178 271.799 138.418 273.583 138.418C275.298 138.418 276.088 140.178 276.088 141.736C276.088 143.293 275.276 145.009 273.583 145.009C271.822 145.009 271.009 143.293 271.009 141.736ZM282.844 146.047C282.844 147.131 283.521 147.853 284.469 147.853C285.417 147.853 286.094 147.131 286.094 146.047V140.381C286.094 139.117 286.839 138.147 288.171 138.147C289.345 138.147 290.293 138.869 290.293 140.381V146.047C290.293 147.131 290.97 147.853 291.918 147.853C292.866 147.853 293.544 147.131 293.544 146.047V139.817C293.544 137.063 291.647 135.438 289.097 135.438C287.562 135.438 286.591 135.889 285.959 136.769C285.846 136.024 285.305 135.573 284.469 135.573C283.521 135.573 282.844 136.295 282.844 137.379V146.047V146.047ZM306.371 137.492C306.371 135.912 303.685 135.438 302.398 135.438C298.967 135.438 296.574 138.44 296.574 141.736C296.574 145.122 298.899 147.989 302.398 147.989C303.572 147.989 306.371 147.424 306.371 145.754C306.371 144.987 305.739 144.332 304.972 144.332C304.588 144.332 303.369 145.009 302.556 145.009C300.795 145.009 299.825 143.338 299.825 141.736C299.825 140.065 300.705 138.418 302.556 138.418C303.594 138.418 304.317 139.049 305.129 139.049C305.897 139.049 306.371 138.169 306.371 137.492ZM318.702 142.796C319.695 142.796 320.124 142.322 320.124 141.352C320.124 138.643 317.799 135.438 314.278 135.438C310.847 135.438 308.454 138.44 308.454 141.736C308.454 145.325 310.892 147.989 314.549 147.989C316.964 147.989 319.854 146.634 319.854 145.235C319.854 144.535 319.222 143.835 318.522 143.835C317.664 143.835 316.513 145.145 314.843 145.145C313.33 145.145 311.998 144.4 311.773 142.797H318.703L318.702 142.796ZM311.704 140.63C311.862 139.253 312.833 138.147 314.278 138.147C315.79 138.147 316.693 139.207 316.874 140.63H311.705H311.704ZM331.778 146.092C331.778 147.221 332.501 147.853 333.471 147.853C334.442 147.853 335.164 147.221 335.164 146.092V133.27C335.164 132.141 334.442 131.51 333.471 131.51C332.501 131.51 331.778 132.141 331.778 133.27V146.092ZM338.759 146.047C338.759 147.131 339.437 147.853 340.385 147.853C341.333 147.853 342.01 147.131 342.01 146.047V140.381C342.01 139.117 342.755 138.147 344.087 138.147C345.261 138.147 346.209 138.869 346.209 140.381V146.047C346.209 147.131 346.886 147.853 347.834 147.853C348.782 147.853 349.459 147.131 349.459 146.047V139.817C349.459 137.063 347.564 135.438 345.013 135.438C343.478 135.438 342.507 135.889 341.875 136.769C341.762 136.024 341.22 135.573 340.385 135.573C339.437 135.573 338.76 136.295 338.76 137.379V146.047L338.759 146.047ZM352.919 146.047C352.919 147.131 353.596 147.853 354.545 147.853C355.493 147.853 356.17 147.131 356.17 146.047V137.379C356.17 136.296 355.493 135.573 354.545 135.573C353.596 135.573 352.919 136.296 352.919 137.379V146.047ZM354.545 130.697C353.574 130.697 352.716 131.555 352.716 132.481C352.716 133.474 353.574 134.354 354.545 134.354C355.56 134.354 356.373 133.496 356.373 132.481C356.373 131.533 355.515 130.697 354.545 130.697ZM360.419 146.047C360.419 147.131 361.097 147.853 362.045 147.853C362.993 147.853 363.671 147.131 363.671 146.047V138.553H364.596C365.431 138.553 366.153 138.147 366.153 137.131C366.153 136.093 365.431 135.709 364.596 135.709H363.671V133.767C363.671 132.684 362.993 131.961 362.045 131.961C361.097 131.961 360.419 132.684 360.419 133.767V135.709H359.697C358.885 135.709 358.275 136.318 358.275 137.131C358.275 138.011 358.817 138.553 359.697 138.553H360.419V146.047ZM367.92 146.047C367.92 147.131 368.597 147.853 369.545 147.853C370.494 147.853 371.171 147.131 371.171 146.047V137.379C371.171 136.296 370.494 135.573 369.545 135.573C368.597 135.573 367.92 136.296 367.92 137.379V146.047ZM369.545 130.697C368.575 130.697 367.717 131.555 367.717 132.481C367.717 133.474 368.575 134.354 369.545 134.354C370.561 134.354 371.374 133.496 371.374 132.481C371.374 131.533 370.516 130.697 369.545 130.697ZM385.737 137.695C385.737 136.86 385.737 135.573 384.179 135.573C383.389 135.573 382.712 136.138 382.622 136.927C381.899 135.912 380.725 135.438 379.529 135.438C376.549 135.438 374.157 138.169 374.157 141.736C374.157 145.393 376.482 147.989 379.529 147.989C380.771 147.989 381.787 147.469 382.622 146.476C382.848 147.334 383.231 147.853 384.179 147.853C385.737 147.853 385.737 146.566 385.737 145.732V137.695V137.695ZM377.407 141.736C377.407 140.178 378.197 138.418 379.98 138.418C381.696 138.418 382.486 140.178 382.486 141.736C382.486 143.293 381.674 145.009 379.98 145.009C378.22 145.009 377.407 143.293 377.407 141.736ZM390.032 146.047C390.032 147.131 390.709 147.853 391.657 147.853C392.605 147.853 393.283 147.131 393.283 146.047V138.553H394.208C395.043 138.553 395.766 138.147 395.766 137.131C395.766 136.093 395.043 135.709 394.208 135.709H393.283V133.767C393.283 132.684 392.605 131.961 391.657 131.961C390.709 131.961 390.032 132.684 390.032 133.767V135.709H389.31C388.497 135.709 387.887 136.318 387.887 137.131C387.887 138.011 388.429 138.553 389.31 138.553H390.032V146.047ZM397.532 146.047C397.532 147.131 398.209 147.853 399.158 147.853C400.106 147.853 400.783 147.131 400.783 146.047V137.379C400.783 136.296 400.106 135.573 399.158 135.573C398.21 135.573 397.532 136.296 397.532 137.379V146.047ZM399.158 130.697C398.187 130.697 397.329 131.555 397.329 132.481C397.329 133.474 398.187 134.354 399.158 134.354C400.173 134.354 400.986 133.496 400.986 132.481C400.986 131.533 400.129 130.697 399.158 130.697ZM406.771 146.499C407.087 147.334 407.425 147.853 408.532 147.853C409.638 147.853 409.977 147.334 410.293 146.499L413.566 138.101C413.724 137.695 413.769 137.447 413.769 137.153C413.769 136.115 412.957 135.573 412.076 135.573C411.173 135.573 410.79 136.227 410.632 136.724L408.555 143.135H408.51L406.433 136.724C406.275 136.227 405.891 135.573 404.988 135.573C404.108 135.573 403.295 136.115 403.295 137.153C403.295 137.447 403.341 137.695 403.499 138.101L406.772 146.499H406.771ZM425.874 142.796C426.868 142.796 427.297 142.322 427.297 141.352C427.297 138.643 424.972 135.438 421.45 135.438C418.019 135.438 415.626 138.44 415.626 141.736C415.626 145.325 418.064 147.989 421.721 147.989C424.137 147.989 427.026 146.634 427.026 145.235C427.026 144.535 426.394 143.835 425.694 143.835C424.836 143.835 423.686 145.145 422.015 145.145C420.502 145.145 419.171 144.4 418.945 142.797H425.875L425.874 142.796ZM418.877 140.63C419.035 139.253 420.005 138.147 421.45 138.147C422.963 138.147 423.866 139.207 424.046 140.63H418.877ZM418.967 25.3628H430.703V109.327H418.967V25.3628ZM402.302 28.3877L401.838 38.5504C398.592 37.2196 395.446 36.211 392.341 35.5458C389.255 34.8806 386.11 34.5579 382.924 34.5579C372.842 34.5579 364.857 37.5017 358.928 43.3898C353 49.2779 350.036 57.2224 350.036 67.2242C350.036 77.3464 352.98 85.2913 358.888 91.0784C364.797 96.8656 372.842 99.7693 383.045 99.7693C386.271 99.7693 389.437 99.4669 392.502 98.8418C395.567 98.2366 398.592 97.3293 401.596 96.1395L401.939 106.665C399.035 107.613 395.93 108.339 392.623 108.823C389.316 109.327 385.808 109.569 382.097 109.569C368.366 109.569 357.537 105.839 349.593 98.3776C341.668 90.8968 337.696 80.7341 337.696 67.8489C337.696 54.8027 341.749 44.4182 349.835 36.6954C357.921 28.9726 368.789 25.1208 382.46 25.1208C386.13 25.1208 389.619 25.383 392.946 25.9275C396.273 26.4516 399.399 27.2786 402.302 28.3877ZM318.732 27.5409L317.542 37.8248C314.941 36.5746 312.279 35.6269 309.537 35.0018C306.794 34.3767 303.931 34.0743 300.926 34.0743C295.845 34.0743 291.873 35.0221 289.03 36.9176C286.167 38.7928 284.735 41.3937 284.735 44.7008C284.735 47.302 285.703 49.6609 287.618 51.7786C289.554 53.9158 293.708 56.7189 300.08 60.2274C308.388 64.8045 314.134 68.9584 317.28 72.6886C320.426 76.4391 321.999 80.7142 321.999 85.513C321.999 92.6513 319.397 98.4988 314.174 103.076C308.952 107.653 302.257 109.932 294.071 109.932C290.098 109.932 286.288 109.609 282.678 108.984C279.048 108.339 275.661 107.411 272.515 106.181L273.705 94.9299C277.174 96.7448 280.521 98.0752 283.747 98.9423C286.973 99.8094 290.119 100.253 293.184 100.253C298.104 100.253 302.056 99.1442 305.06 96.9462C308.045 94.728 309.537 91.8243 309.537 88.1946C309.537 82.549 303.649 76.3788 291.872 69.684C289.917 68.5749 288.425 67.7078 287.396 67.0827C282.92 64.4814 279.391 61.3154 276.83 57.5852C274.269 53.8347 272.999 50.0035 272.999 46.0714C272.999 39.5379 275.499 34.356 280.48 30.5046C285.461 26.6734 292.236 24.758 300.826 24.758C304.012 24.758 307.117 24.9797 310.101 25.4434C313.106 25.9072 315.969 26.613 318.732 27.5405V27.5409ZM214.311 34.5583V61.296H222.881C228.93 61.296 233.588 60.1062 236.814 57.7469C240.041 55.3877 241.654 52.0202 241.654 47.6649C241.654 43.4105 240.141 40.1638 237.097 37.9258C234.072 35.6877 229.696 34.5583 223.99 34.5583H214.311ZM202.696 25.3632H225.18C234.294 25.3632 241.331 27.2186 246.291 30.9083C251.272 34.6183 253.752 39.8213 253.752 46.5156C253.752 51.1535 252.422 55.0853 249.78 58.2914C247.138 61.5177 243.287 63.7761 238.226 65.1272C244.074 66.5387 248.53 69.0188 251.575 72.5476C254.64 76.0764 256.172 80.5124 256.172 85.8759C256.172 93.3165 253.49 99.0833 248.126 103.177C242.763 107.27 235.161 109.327 225.3 109.327H202.696V25.3628V25.3632Z" fill="white"/>
</svg>
