<svg xmlns="http://www.w3.org/2000/svg" width="431" height="333" viewBox="0 0 431 333" fill="none">
<path fill-rule="evenodd" clip-rule="evenodd" d="M171.435 180.36V146.724H178.163V180.36H171.435ZM418.178 331.931V315.974H421.267L427.753 326.668V315.974H430.702V331.931H427.514L421.127 321.441V331.931H418.178ZM402.41 315.974H408.214C409.523 315.974 410.521 316.075 411.207 316.278C412.128 316.554 412.92 317.044 413.577 317.749C414.237 318.451 414.736 319.313 415.081 320.334C415.422 321.353 415.594 322.611 415.594 324.105C415.594 325.42 415.433 326.549 415.11 327.5C414.718 328.662 414.156 329.602 413.427 330.318C412.876 330.865 412.132 331.289 411.196 331.593C410.495 331.819 409.56 331.931 408.386 331.931H402.41V315.975V315.974ZM405.602 318.671V329.234H407.968C408.852 329.234 409.49 329.182 409.883 329.082C410.4 328.952 410.826 328.729 411.163 328.417C411.504 328.105 411.78 327.592 411.993 326.879C412.209 326.166 412.315 325.189 412.315 323.956C412.315 322.723 412.208 321.779 411.993 321.118C411.78 320.457 411.479 319.945 411.094 319.574C410.708 319.206 410.22 318.953 409.626 318.824C409.186 318.723 408.317 318.671 407.025 318.671H405.602V318.671ZM396.313 331.931V315.974H399.504V331.931H396.313ZM388.847 327.674V324.62H394.79V327.674H388.847ZM386.66 319.881L383.732 320.208C383.663 319.599 383.476 319.149 383.175 318.86C382.874 318.57 382.485 318.425 382.004 318.425C381.367 318.425 380.827 318.715 380.387 319.294C379.946 319.874 379.671 321.081 379.558 322.916C380.31 322.017 381.242 321.568 382.36 321.568C383.619 321.568 384.701 322.054 385.6 323.028C386.499 324.004 386.946 325.259 386.946 326.801C386.946 328.435 386.473 329.75 385.527 330.738C384.58 331.726 383.366 332.22 381.883 332.22C380.295 332.22 378.985 331.592 377.962 330.337C376.938 329.082 376.424 327.028 376.424 324.168C376.424 321.237 376.96 319.124 378.028 317.827C379.095 316.531 380.482 315.884 382.188 315.884C383.384 315.884 384.374 316.226 385.159 316.91C385.944 317.59 386.443 318.582 386.66 319.881ZM379.814 326.56C379.814 327.555 380.042 328.324 380.493 328.866C380.944 329.409 381.458 329.68 382.041 329.68C382.599 329.68 383.065 329.457 383.439 329.015C383.809 328.569 383.996 327.841 383.996 326.831C383.996 325.791 383.794 325.029 383.395 324.542C382.991 324.06 382.492 323.819 381.89 323.819C381.307 323.819 380.819 324.049 380.415 324.513C380.015 324.974 379.814 325.657 379.814 326.56ZM372.036 331.93H369.021V320.379C367.92 321.426 366.622 322.203 365.125 322.704V319.918C365.913 319.658 366.768 319.164 367.689 318.432C368.613 317.704 369.245 316.854 369.589 315.884H372.036V331.93V331.93ZM357.314 315.884C358.84 315.884 360.032 316.438 360.894 317.545C361.918 318.853 362.432 321.025 362.432 324.056C362.432 327.083 361.914 329.26 360.883 330.582C360.029 331.674 358.84 332.22 357.314 332.22C355.781 332.22 354.544 331.622 353.605 330.426C352.666 329.23 352.196 327.094 352.196 324.027C352.196 321.014 352.714 318.845 353.745 317.523C354.6 316.431 355.788 315.884 357.314 315.884H357.314ZM357.314 318.425C356.954 318.425 356.631 318.544 356.353 318.782C356.07 319.016 355.85 319.439 355.695 320.052C355.49 320.843 355.388 322.18 355.388 324.056C355.388 325.935 355.48 327.224 355.663 327.926C355.846 328.628 356.077 329.096 356.356 329.33C356.635 329.564 356.953 329.679 357.314 329.679C357.673 329.679 357.996 329.56 358.278 329.323C358.557 329.089 358.777 328.665 358.931 328.052C359.137 327.269 359.239 325.935 359.239 324.056C359.239 322.18 359.148 320.891 358.964 320.19C358.781 319.488 358.55 319.016 358.271 318.782C357.993 318.544 357.673 318.425 357.314 318.425ZM345.302 327.673V324.62H351.246V327.673H345.302ZM329.953 331.93V315.974H333.145V323.042L339.576 315.974H343.853L337.907 322.187L344.161 331.93H340.045L335.71 324.438L333.145 327.105V331.93H329.953L329.953 331.93ZM316.68 331.93V316.107H319.872V329.233H327.773V331.93H316.68ZM306.07 331.93L300.431 315.974H303.879L307.882 327.785L311.723 315.974H315.113L309.507 331.93H306.069H306.07ZM290.442 331.93V316.107H293.633V329.233H301.535V331.93H290.442ZM282.778 327.673V324.62H288.721V327.673H282.778ZM268.598 331.93V315.974H280.264V318.67H271.791V322.214H279.67V324.911H271.791V329.234H280.573V331.931H268.599L268.598 331.93ZM253.208 326.76L256.311 326.448C256.498 327.499 256.872 328.268 257.441 328.762C258.011 329.256 258.777 329.501 259.742 329.501C260.762 329.501 261.532 329.282 262.049 328.843C262.566 328.405 262.827 327.893 262.827 327.306C262.827 326.927 262.717 326.608 262.5 326.34C262.284 326.077 261.902 325.846 261.359 325.653C260.989 325.519 260.146 325.289 258.824 324.955C257.126 324.524 255.934 323.997 255.247 323.369C254.283 322.489 253.802 321.415 253.802 320.149C253.802 319.335 254.03 318.57 254.481 317.861C254.936 317.151 255.589 316.613 256.443 316.241C257.298 315.87 258.325 315.684 259.536 315.684C261.505 315.684 262.991 316.126 263.986 317.014C264.984 317.901 265.505 319.083 265.556 320.565L262.365 320.677C262.228 319.852 261.939 319.261 261.495 318.901C261.051 318.54 260.383 318.358 259.495 318.358C258.579 318.358 257.859 318.551 257.342 318.938C257.008 319.187 256.839 319.517 256.839 319.933C256.839 320.312 256.997 320.635 257.313 320.902C257.713 321.248 258.685 321.604 260.229 321.976C261.774 322.344 262.914 322.731 263.652 323.124C264.393 323.521 264.973 324.06 265.39 324.747C265.809 325.434 266.018 326.281 266.018 327.287C266.018 328.201 265.768 329.059 265.266 329.858C264.763 330.656 264.055 331.251 263.138 331.637C262.221 332.027 261.076 332.221 259.708 332.221C257.716 332.221 256.186 331.756 255.118 330.824C254.051 329.896 253.416 328.54 253.207 326.761L253.208 326.76ZM247.947 331.93V315.974H251.139V331.93H247.947ZM240.481 327.673V324.62H246.424V327.673H240.481ZM228.103 327.833L231.119 327.517C231.207 328.208 231.459 328.758 231.881 329.163C232.307 329.568 232.795 329.768 233.349 329.768C233.979 329.768 234.515 329.508 234.952 328.985C235.389 328.461 235.609 327.673 235.609 326.623C235.609 325.635 235.392 324.896 234.956 324.402C234.523 323.908 233.958 323.662 233.261 323.662C232.391 323.662 231.61 324.049 230.92 324.821L228.477 324.464L230.018 316.174H238.009V319.026H232.311L231.834 321.742C232.506 321.403 233.195 321.233 233.899 321.233C235.242 321.233 236.379 321.727 237.311 322.719C238.246 323.707 238.713 324.992 238.713 326.575C238.713 327.893 238.334 329.066 237.582 330.103C236.555 331.514 235.132 332.22 233.312 332.22C231.856 332.22 230.668 331.822 229.75 331.031C228.83 330.236 228.283 329.174 228.103 327.833L228.103 327.833ZM226.18 319.881L223.252 320.207C223.183 319.599 222.996 319.149 222.695 318.859C222.394 318.569 222.005 318.425 221.524 318.425C220.886 318.425 220.346 318.715 219.907 319.294C219.466 319.873 219.191 321.081 219.077 322.915C219.829 322.016 220.761 321.567 221.88 321.567C223.138 321.567 224.221 322.054 225.12 323.027C226.019 324.004 226.466 325.259 226.466 326.8C226.466 328.435 225.992 329.75 225.046 330.737C224.099 331.725 222.886 332.22 221.403 332.22C219.815 332.22 218.505 331.592 217.482 330.337C216.458 329.081 215.944 327.027 215.944 324.167C215.944 321.237 216.48 319.123 217.548 317.827C218.615 316.531 220.002 315.884 221.708 315.884C222.904 315.884 223.894 316.226 224.679 316.909C225.465 317.589 225.964 318.581 226.18 319.881H226.18ZM219.335 326.559C219.335 327.555 219.562 328.324 220.013 328.866C220.464 329.408 220.978 329.679 221.561 329.679C222.119 329.679 222.584 329.456 222.959 329.014C223.329 328.569 223.516 327.841 223.516 326.83C223.516 325.791 223.314 325.029 222.915 324.542C222.511 324.059 222.012 323.818 221.411 323.818C220.828 323.818 220.339 324.048 219.936 324.513C219.536 324.973 219.335 325.657 219.335 326.559ZM211.556 331.93H208.54V320.379C207.44 321.426 206.141 322.202 204.644 322.704V319.917C205.433 319.658 206.288 319.164 207.209 318.431C208.133 317.704 208.764 316.854 209.109 315.884H211.556V331.929L211.556 331.93ZM192.366 331.93V328.877H195.381V331.93H192.366ZM174.756 324.048C174.756 322.421 174.999 321.055 175.479 319.948C175.835 319.134 176.326 318.403 176.947 317.756C177.566 317.11 178.245 316.631 178.983 316.315C179.966 315.896 181.1 315.684 182.384 315.684C184.709 315.684 186.565 316.416 187.963 317.875C189.357 319.339 190.054 321.371 190.054 323.974C190.054 326.556 189.361 328.576 187.978 330.032C186.595 331.492 184.742 332.22 182.427 332.22C180.083 332.22 178.216 331.495 176.833 330.043C175.45 328.595 174.756 326.596 174.756 324.049V324.048ZM178.036 323.94C178.036 325.749 178.451 327.12 179.276 328.056C180.101 328.988 181.151 329.456 182.42 329.456C183.693 329.456 184.735 328.992 185.553 328.067C186.367 327.138 186.774 325.749 186.774 323.896C186.774 322.064 186.378 320.698 185.582 319.799C184.79 318.896 183.737 318.447 182.42 318.447C181.107 318.447 180.047 318.904 179.243 319.814C178.439 320.727 178.036 322.102 178.036 323.94H178.036ZM159.649 331.93V315.973H162.738L169.224 326.667V315.973H172.173V331.93H168.985L162.598 321.441V331.93H159.649ZM138.98 331.93V315.973H150.646V318.67H142.172V322.213H150.051V324.91H142.172V329.233H150.954V331.93H138.98V331.93ZM129.207 331.93V318.67H124.54V315.973H137.042V318.67H132.398V331.93H129.207ZM125.724 331.93H122.287L120.926 328.297H114.605L113.296 331.93H109.921L116.04 315.973H119.411L125.725 331.93H125.724ZM119.891 325.6L117.701 319.695L115.574 325.6H119.891ZM105.84 326.047L108.922 327.005C108.449 328.762 107.661 330.066 106.56 330.92C105.459 331.77 104.065 332.197 102.374 332.197C100.279 332.197 98.559 331.473 97.2083 330.024C95.8622 328.576 95.187 326.596 95.187 324.082C95.187 321.426 95.8659 319.361 97.2195 317.89C98.5731 316.419 100.356 315.683 102.565 315.683C104.494 315.683 106.061 316.263 107.264 317.418C107.983 318.102 108.519 319.082 108.879 320.364L105.731 321.121C105.544 320.297 105.155 319.643 104.565 319.164C103.97 318.685 103.251 318.447 102.407 318.447C101.237 318.447 100.287 318.87 99.5602 319.721C98.8304 320.568 98.4672 321.942 98.4672 323.844C98.4672 325.857 98.8267 327.294 99.5415 328.149C100.261 329.007 101.192 329.434 102.341 329.434C103.189 329.434 103.918 329.163 104.527 328.617C105.137 328.07 105.576 327.217 105.84 326.047ZM89.6622 331.93V315.973H92.8538V331.93H89.6622ZM76.4547 331.93V315.973H87.2847V318.67H79.6467V322.458H86.2497V325.155H79.6467V331.93H76.4547ZM70.3577 331.93V315.973H73.5493V331.93H70.3577ZM60.6943 331.93V318.67H56.0279V315.973H68.53V318.67H63.8855V331.93H60.6939H60.6943ZM41.3824 331.93V315.973H48.085C49.7691 315.973 50.9941 316.118 51.7569 316.404C52.5243 316.689 53.1328 317.199 53.5916 317.93C54.05 318.666 54.2808 319.502 54.2808 320.445C54.2808 321.645 53.9362 322.633 53.2429 323.413C52.5495 324.192 51.5153 324.683 50.1356 324.887C50.822 325.292 51.3867 325.738 51.831 326.225C52.2782 326.711 52.8801 327.576 53.6355 328.818L55.5579 331.93H51.7536L49.4721 328.446C48.6538 327.209 48.0928 326.429 47.788 326.106C47.4872 325.787 47.1687 325.564 46.8307 325.445C46.4898 325.326 45.9536 325.267 45.2202 325.267H44.5748V331.93H41.3828L41.3824 331.93ZM44.5744 322.726H46.9291C48.4552 322.726 49.4059 322.659 49.7873 322.529C50.165 322.399 50.4662 322.172 50.6788 321.853C50.8948 321.533 51.0011 321.132 51.0011 320.653C51.0011 320.114 50.8584 319.684 50.5758 319.349C50.2933 319.019 49.8932 318.811 49.3794 318.725C49.1192 318.688 48.3452 318.669 47.0574 318.669H44.574V322.726L44.5744 322.726ZM26.8283 331.93V315.973H38.4944V318.67H30.0203V322.213H37.8999V324.91H30.0203V329.233H38.8026V331.93H26.8283V331.93ZM21.1417 326.047L24.2237 327.005C23.7504 328.762 22.9615 330.066 21.8607 330.92C20.7599 331.77 19.3661 332.197 17.675 332.197C15.5804 332.197 13.8599 331.473 12.5096 330.024C11.1635 328.576 10.4883 326.596 10.4883 324.082C10.4883 321.426 11.1672 319.361 12.5208 317.89C13.8744 316.419 15.6578 315.683 17.8661 315.683C19.7955 315.683 21.3622 316.263 22.566 317.418C23.2846 318.102 23.8208 319.082 24.1798 320.364L21.0325 321.121C20.8455 320.297 20.4566 319.643 19.8659 319.164C19.2714 318.685 18.5524 318.447 17.7085 318.447C16.5381 318.447 15.5879 318.87 14.8614 319.721C14.1317 320.568 13.7685 321.942 13.7685 323.844C13.7685 325.857 14.128 327.294 14.8428 328.149C15.5622 329.007 16.4935 329.434 17.6427 329.434C18.4899 329.434 19.2197 329.163 19.829 328.617C20.438 328.07 20.8782 327.217 21.1421 326.047H21.1417ZM403.587 134.056C405.094 134.056 406.463 134.676 407.454 135.679C408.446 136.684 409.059 138.07 409.059 139.596C409.059 141.125 408.446 142.512 407.456 143.514C406.464 144.516 405.095 145.137 403.587 145.137C402.076 145.137 400.707 144.516 399.717 143.514C398.727 142.51 398.114 141.125 398.114 139.596C398.114 138.069 398.727 136.682 399.718 135.68C400.707 134.676 402.076 134.056 403.587 134.056ZM400.804 142.844V136.426H403.742C404.022 136.426 404.273 136.441 404.492 136.471C404.714 136.5 404.906 136.548 405.064 136.61C405.232 136.675 405.382 136.766 405.514 136.879C405.645 136.993 405.76 137.132 405.857 137.292C405.952 137.451 406.024 137.619 406.072 137.794C406.119 137.972 406.145 138.157 406.145 138.344C406.145 138.592 406.104 138.823 406.025 139.033C405.942 139.247 405.82 139.442 405.661 139.613C405.5 139.786 405.295 139.929 405.051 140.036L404.798 140.131L404.837 140.164C404.962 140.279 405.085 140.412 405.204 140.56C405.319 140.7 405.434 140.86 405.545 141.035L406.742 142.943L406.817 142.868C407.643 142.03 408.155 140.873 408.155 139.596C408.155 138.319 407.644 137.162 406.818 136.326C405.992 135.49 404.85 134.973 403.588 134.973C402.327 134.973 401.184 135.49 400.358 136.327C399.531 137.162 399.02 138.319 399.02 139.596C399.02 140.876 399.531 142.032 400.356 142.867C401.184 143.703 402.327 144.222 403.588 144.222C404.742 144.222 405.795 143.789 406.597 143.077H405.273L404.398 141.682L404.087 141.207L403.829 140.847C403.759 140.756 403.692 140.68 403.631 140.618C403.575 140.562 403.522 140.516 403.474 140.485L403.325 140.404L403.176 140.352L403.032 140.337L402.075 140.33V143.078H400.805V142.845L400.804 142.844ZM402.074 139.155H403.579C403.755 139.155 403.909 139.146 404.041 139.129C404.17 139.111 404.278 139.086 404.364 139.054C404.446 139.023 404.518 138.985 404.578 138.938C404.635 138.891 404.685 138.837 404.722 138.777C404.765 138.709 404.797 138.64 404.817 138.57C404.838 138.497 404.848 138.423 404.848 138.346C404.848 138.23 404.828 138.127 404.789 138.037C404.751 137.949 404.691 137.868 404.613 137.796C404.535 137.726 404.429 137.671 404.299 137.634C404.156 137.594 403.981 137.573 403.776 137.573H402.074V139.155L402.074 139.155ZM0.000413691 123.831L79.0258 203.573L136.233 120.059C128.028 79.7742 171.09 59.3118 207.142 47.1555C240.522 35.9006 276.235 23.7385 280.715 0.44519C294.928 58.0765 263.299 101.097 202.487 115.613C140.291 130.46 97.8421 176.102 95.5209 216.502L72.6384 236.438L5.05324 164.777L0 123.831L0.000413691 123.831ZM148.803 126.049C148.058 126.424 147.153 126.117 146.783 125.363C146.412 124.609 146.716 123.692 147.46 123.317C151.607 121.226 155.711 119.24 159.872 117.283C156.287 111.235 152.856 94.8036 156.195 81.7798C154.895 95.535 157.45 107.484 161.524 116.509C166.35 114.255 171.271 112.026 176.443 109.706C173.286 105.153 168.445 85.371 170.322 72.9003C171.055 85.1112 173.961 101.512 177.985 109.015C182.315 107.075 186.828 105.065 191.613 102.917C188.147 96.501 182.325 78.5687 184.161 66.5944C184.367 78.6188 189.499 93.1621 193.114 102.242C196.855 100.558 200.764 98.7891 204.882 96.9023C206.103 96.343 207.383 95.7323 208.71 95.0725C205.415 89.4881 200.035 76.6194 198.478 59.7983C201.492 73.4675 206.344 87.6285 210.07 94.3883C214.255 92.2565 218.873 89.6647 223.665 86.6704C220.485 80.3484 216.332 69.3802 214.623 56.1864C217.463 67.1512 221.517 78.3879 225.067 85.7872C229.577 82.9145 234.218 79.6939 238.78 76.1697C235.539 69.6247 231.955 60.0689 230.085 48.4818C232.904 58.1146 236.686 67.9348 240.138 75.1094C244.261 71.8586 248.301 68.3613 252.101 64.6526C249.071 58.6441 245.965 50.8018 243.889 41.5752C246.663 49.2657 250.08 57.0402 253.354 63.4131C256.77 59.9845 259.892 56.3192 262.738 52.5111C260.812 47.7723 259.019 42.3091 257.671 36.2502C259.487 41.3237 261.585 46.434 263.735 51.1559C266.537 47.2866 269.061 43.2842 271.328 39.2428C270.385 35.6325 269.572 31.7198 268.985 27.5494C269.919 31.0013 270.976 34.4787 272.098 37.8532C274.829 32.8471 277.17 27.7985 279.16 22.8888C277.697 28.285 275.631 33.6021 273.013 38.7968C275.692 37.356 278.373 35.8245 280.977 34.2491C277.987 36.6212 275.007 38.7079 272.115 40.531C270.054 44.4177 267.686 48.2331 265.032 51.9572C269.502 51.3081 275.594 49.7775 277.944 48.6468C276.094 50.4741 268.889 52.586 264.036 53.3315C261.128 57.2855 257.896 61.1337 254.37 64.854C258.32 65.3488 267.755 64.4862 270.948 63.4499C268.302 65.4439 256.957 66.7247 253.226 66.0454C249.604 69.7716 245.685 73.3653 241.496 76.8035C246.163 77.5845 256.703 77.5279 260.371 76.7849C257.26 78.5025 244.676 78.8268 240.131 77.9126C235.882 81.3202 231.365 84.5693 226.611 87.6372C231.272 89.1236 241.029 90.6837 244.659 90.5691C241.386 91.6782 229.937 90.1305 225.169 88.5589C220.928 91.2363 216.502 93.7715 211.913 96.1469L211.599 96.3094C215.322 98.9513 221.334 102.261 223.963 103.065C221.34 103.161 214.434 99.7183 210.368 96.9449C204.741 99.844 199.479 102.482 194.583 104.885C197.969 107.504 202.368 110.341 204.572 111.144C202.317 111.109 197.201 108.212 193.408 105.461C188.375 107.921 183.738 110.127 179.497 112.107C182.449 114.427 185.706 116.644 187.465 117.434C185.602 117.269 181.8 115.046 178.432 112.602C172.391 115.411 167.178 117.75 162.792 119.701C165.861 121.176 168.999 122.448 170.701 122.823C168.047 122.655 165.246 121.682 161.659 120.205C155.789 122.811 151.504 124.687 148.803 126.049L148.803 126.049ZM80.6565 135.955C92.6639 135.955 103.925 139.414 113.636 145.46L100.341 164.87C94.4143 161.669 87.7302 159.865 80.6565 159.865C69.9895 159.865 60.2049 163.96 52.5748 170.777L36.327 154.382C48.0668 142.929 63.6092 135.955 80.6565 135.955ZM129.676 159.432C140.374 172.166 146.894 189.085 146.894 207.651C146.894 247.246 117.238 279.346 80.657 279.346C44.0759 279.346 14.4196 247.246 14.4196 207.651C14.4196 199.609 15.6433 191.876 17.8992 184.658L36.6075 204.495C36.5446 205.538 36.5091 206.59 36.5091 207.651C36.5091 234.042 56.2752 255.437 80.6574 255.437C105.04 255.437 124.805 234.042 124.805 207.651C124.805 196.066 120.995 185.443 114.658 177.172C119.096 170.728 124.202 164.8 129.523 159.581L129.676 159.432H129.676ZM179.234 297.279L171.434 263.691H178.338L183.272 286.763L189.326 263.691H197.31L203.102 287.154L208.152 263.691H214.894L206.901 297.279H199.727L193.187 272.167L186.6 297.279H179.233H179.234ZM215.864 284.809C215.864 282.666 216.382 280.595 217.424 278.593C218.466 276.584 219.941 275.06 221.849 274.005C223.756 272.949 225.88 272.417 228.235 272.417C231.872 272.417 234.845 273.613 237.169 276.006C239.493 278.406 240.651 281.423 240.651 285.083C240.651 288.773 239.477 291.83 237.138 294.253C234.79 296.677 231.84 297.889 228.281 297.889C226.08 297.889 223.979 297.38 221.98 296.372C219.987 295.364 218.466 293.886 217.423 291.932C216.381 289.984 215.864 287.608 215.864 284.809H215.864ZM222.397 285.152C222.397 287.569 222.96 289.422 224.088 290.703C225.223 291.994 226.613 292.634 228.274 292.634C229.926 292.634 231.316 291.994 232.436 290.703C233.555 289.422 234.119 287.553 234.119 285.106C234.119 282.721 233.555 280.885 232.436 279.602C231.316 278.312 229.926 277.671 228.274 277.671C226.613 277.671 225.224 278.312 224.088 279.602C222.96 280.885 222.397 282.737 222.397 285.153V285.152ZM243.985 284.809C243.985 282.666 244.503 280.595 245.545 278.593C246.587 276.584 248.062 275.06 249.969 274.005C251.876 272.949 254 272.417 256.355 272.417C259.993 272.417 262.966 273.613 265.289 276.006C267.614 278.406 268.771 281.423 268.771 285.083C268.771 288.773 267.598 291.83 265.259 294.253C262.911 296.677 259.961 297.889 256.402 297.889C254.2 297.889 252.101 297.38 250.1 296.372C248.108 295.364 246.587 293.886 245.545 291.932C244.503 289.984 243.985 287.608 243.985 284.809ZM250.518 285.152C250.518 287.569 251.081 289.422 252.209 290.703C253.344 291.994 254.734 292.634 256.395 292.634C258.047 292.634 259.437 291.994 260.556 290.703C261.676 289.422 262.24 287.553 262.24 285.106C262.24 282.721 261.675 280.885 260.556 279.602C259.436 278.312 258.047 277.671 256.395 277.671C254.734 277.671 253.344 278.312 252.209 279.602C251.082 280.885 250.518 282.737 250.518 285.153V285.152ZM295.642 297.279H289.758V293.706C288.778 295.097 287.612 296.138 286.276 296.841C284.94 297.537 283.588 297.889 282.23 297.889C279.458 297.889 277.087 296.762 275.11 294.504C273.141 292.244 272.153 289.101 272.153 285.059C272.153 280.931 273.11 277.789 275.033 275.639C276.956 273.488 279.381 272.417 282.315 272.417C285.002 272.417 287.334 273.551 289.295 275.81V263.692H295.642V297.279V297.279ZM278.685 284.637C278.685 287.24 279.041 289.124 279.744 290.29C280.771 291.978 282.199 292.822 284.037 292.822C285.496 292.822 286.74 292.189 287.758 290.923C288.785 289.656 289.295 287.772 289.295 285.254C289.295 282.448 288.802 280.431 287.805 279.195C286.809 277.96 285.542 277.342 283.991 277.342C282.485 277.342 281.226 277.952 280.207 279.172C279.196 280.391 278.686 282.213 278.686 284.637L278.685 284.637ZM171.434 248.356V201.382H180.909V240.351H204.369V248.356H171.434ZM209.737 248.356V200.985H244.371V208.991H219.212V219.51H242.607V227.515H219.212V240.351H245.286V248.356H209.737H209.737ZM273.732 230.956V222.951H294.055V241.851C292.084 243.802 289.22 245.511 285.461 247C281.715 248.477 277.914 249.216 274.058 249.216C269.169 249.216 264.91 248.18 261.272 246.096C257.646 244.011 254.912 241.023 253.083 237.153C251.253 233.283 250.338 229.059 250.338 224.505C250.338 219.565 251.362 215.176 253.398 211.328C255.446 207.491 258.43 204.536 262.361 202.485C265.368 200.908 269.092 200.125 273.557 200.125C279.363 200.125 283.904 201.36 287.171 203.83C290.428 206.311 292.53 209.718 293.466 214.085L284.057 215.871C283.403 213.544 282.161 211.703 280.342 210.347C278.535 209.002 276.27 208.329 273.546 208.329C269.429 208.329 266.152 209.652 263.722 212.31C261.294 214.967 260.074 218.903 260.074 224.119C260.074 229.754 261.305 233.977 263.767 236.789C266.239 239.602 269.463 241.012 273.46 241.012C275.431 241.012 277.413 240.615 279.395 239.833C281.388 239.049 283.087 238.09 284.514 236.966V230.956H273.732ZM343.597 248.356H333.392L329.351 237.572H310.586L306.698 248.356H296.678L314.845 200.985H324.853L343.597 248.356ZM326.28 229.566L319.778 212.034L313.462 229.566H326.281H326.28ZM347.549 248.356V201.382H357.024V240.351H380.484V248.356H347.549ZM206.233 180.359H199.876V167.933C199.876 165.303 199.737 163.603 199.466 162.836C199.188 162.061 198.746 161.466 198.128 161.036C197.51 160.605 196.766 160.393 195.901 160.393C194.787 160.393 193.789 160.699 192.908 161.309C192.019 161.92 191.415 162.734 191.091 163.737C190.758 164.746 190.596 166.61 190.596 169.335V180.359H184.239V155.977H190.132V159.555C192.243 156.823 194.895 155.46 198.105 155.46C199.512 155.46 200.804 155.718 201.971 156.227C203.147 156.744 204.028 157.394 204.624 158.184C205.227 158.983 205.645 159.883 205.877 160.894C206.116 161.903 206.233 163.344 206.233 165.223V180.359V180.359ZM234.581 180.359H228.688V176.781C227.706 178.174 226.538 179.216 225.2 179.92C223.862 180.617 222.51 180.97 221.148 180.97C218.371 180.97 215.997 179.842 214.018 177.579C212.046 175.316 211.056 172.169 211.056 168.121C211.056 163.987 212.015 160.839 213.94 158.686C215.867 156.533 218.295 155.46 221.233 155.46C223.924 155.46 226.26 156.595 228.224 158.858V146.722H234.581V180.359V180.359ZM217.598 167.699C217.598 170.306 217.954 172.193 218.658 173.359C219.687 175.051 221.118 175.897 222.958 175.897C224.42 175.897 225.665 175.263 226.686 173.994C227.714 172.725 228.224 170.838 228.224 168.317C228.224 165.506 227.73 163.486 226.732 162.249C225.734 161.013 224.466 160.394 222.912 160.394C221.403 160.394 220.143 161.005 219.122 162.226C218.109 163.447 217.598 165.272 217.598 167.699V167.699ZM239.173 167.871C239.173 165.726 239.691 163.651 240.735 161.646C241.778 159.634 243.256 158.107 245.166 157.05C247.075 155.994 249.203 155.461 251.561 155.461C255.203 155.461 258.18 156.659 260.508 159.055C262.836 161.458 263.996 164.481 263.996 168.146C263.996 171.841 262.82 174.902 260.477 177.33C258.126 179.757 255.172 180.97 251.607 180.97C249.403 180.97 247.299 180.461 245.297 179.451C243.302 178.441 241.778 176.961 240.734 175.004C239.69 173.054 239.172 170.673 239.172 167.871H239.173ZM245.715 168.216C245.715 170.635 246.279 172.491 247.408 173.774C248.545 175.066 249.937 175.709 251.6 175.709C253.254 175.709 254.647 175.066 255.769 173.774C256.89 172.491 257.455 170.619 257.455 168.169C257.455 165.78 256.89 163.941 255.769 162.656C254.647 161.365 253.255 160.723 251.6 160.723C249.937 160.723 248.545 161.364 247.408 162.656C246.279 163.941 245.715 165.796 245.715 168.216ZM290.721 180.36H284.364V167.933C284.364 165.303 284.225 163.604 283.954 162.837C283.676 162.061 283.235 161.466 282.616 161.036C281.998 160.605 281.255 160.394 280.39 160.394C279.276 160.394 278.278 160.7 277.397 161.31C276.507 161.921 275.904 162.735 275.579 163.737C275.247 164.747 275.084 166.611 275.084 169.335V180.359H268.728V155.977H274.621V159.556C276.732 156.823 279.384 155.46 282.594 155.46C284.001 155.46 285.293 155.719 286.46 156.228C287.636 156.745 288.518 157.394 289.113 158.185C289.716 158.984 290.133 159.884 290.366 160.894C290.605 161.904 290.721 163.345 290.721 165.224V180.359L290.721 180.36ZM310.903 172.656L317.26 173.735C316.448 176.093 315.157 177.886 313.401 179.123C311.638 180.352 309.434 180.971 306.797 180.971C302.613 180.971 299.512 179.585 297.509 176.813C295.923 174.589 295.127 171.786 295.127 168.396C295.127 164.356 296.171 161.185 298.252 158.898C300.332 156.604 302.968 155.461 306.155 155.461C309.728 155.461 312.55 156.659 314.623 159.055C316.688 161.451 317.678 165.122 317.585 170.071H301.669C301.716 171.982 302.226 173.469 303.209 174.534C304.184 175.599 305.405 176.132 306.859 176.132C307.857 176.132 308.692 175.857 309.365 175.309C310.045 174.761 310.555 173.876 310.904 172.655L310.903 172.656ZM311.274 166.126C311.228 164.254 310.757 162.829 309.851 161.858C308.947 160.88 307.849 160.394 306.549 160.394C305.165 160.394 304.021 160.911 303.116 161.936C302.211 162.962 301.77 164.363 301.786 166.126H311.274H311.274ZM320.336 173.501L326.739 172.515C327.009 173.76 327.559 174.707 328.393 175.349C329.221 175.999 330.389 176.321 331.881 176.321C333.528 176.321 334.765 176.015 335.601 175.404C336.158 174.973 336.436 174.394 336.436 173.673C336.436 173.188 336.281 172.781 335.98 172.46C335.663 172.155 334.951 171.865 333.853 171.607C328.71 170.455 325.454 169.407 324.078 168.459C322.168 167.136 321.217 165.304 321.217 162.963C321.217 160.841 322.045 159.064 323.691 157.623C325.339 156.182 327.89 155.461 331.347 155.461C334.641 155.461 337.093 156.01 338.694 157.098C340.295 158.194 341.401 159.807 342.003 161.944L336.018 163.072C335.763 162.117 335.268 161.381 334.548 160.872C333.829 160.363 332.801 160.113 331.463 160.113C329.777 160.113 328.571 160.348 327.836 160.825C327.348 161.162 327.109 161.6 327.109 162.133C327.109 162.595 327.318 162.987 327.744 163.308C328.323 163.738 330.31 164.341 333.713 165.124C337.116 165.907 339.49 166.862 340.836 167.998C342.174 169.141 342.838 170.746 342.838 172.797C342.838 175.029 341.919 176.955 340.07 178.56C338.23 180.166 335.5 180.972 331.88 180.972C328.602 180.972 326.004 180.299 324.086 178.96C322.175 177.62 320.923 175.804 320.335 173.503L320.336 173.501ZM348.235 152.689V146.723H354.592V152.689H348.235ZM348.235 180.36V155.978H354.592V180.36H348.235ZM365.68 163.495L359.926 162.461C360.575 160.081 361.698 158.319 363.283 157.176C364.869 156.033 367.227 155.461 370.351 155.461C373.189 155.461 375.309 155.798 376.7 156.479C378.084 157.161 379.066 158.021 379.631 159.07C380.195 160.12 380.482 162.038 380.482 164.841L380.389 172.357C380.389 174.495 380.49 176.076 380.69 177.095C380.891 178.113 381.27 179.2 381.827 180.359H375.517C375.354 179.937 375.145 179.31 374.906 178.48C374.805 178.096 374.728 177.846 374.681 177.729C373.599 178.809 372.439 179.615 371.201 180.156C369.964 180.696 368.649 180.97 367.249 180.97C364.783 180.97 362.834 180.289 361.411 178.926C359.987 177.572 359.276 175.849 359.276 173.766C359.276 172.396 359.602 171.167 360.251 170.086C360.9 169.014 361.805 168.184 362.981 167.612C364.149 167.041 365.835 166.539 368.038 166.109C371.009 165.545 373.073 165.013 374.217 164.527V163.878C374.217 162.624 373.916 161.732 373.313 161.192C372.702 160.66 371.558 160.393 369.88 160.393C368.743 160.393 367.861 160.62 367.227 161.082C366.585 161.537 366.075 162.343 365.68 163.494V163.495ZM374.217 168.709C373.405 168.983 372.114 169.312 370.343 169.695C368.58 170.079 367.42 170.454 366.879 170.815C366.051 171.418 365.634 172.17 365.634 173.086C365.634 173.994 365.967 174.769 366.631 175.427C367.297 176.084 368.14 176.414 369.168 176.414C370.312 176.414 371.41 176.03 372.454 175.27C373.22 174.682 373.731 173.978 373.97 173.133C374.133 172.585 374.218 171.535 374.218 169.993V168.709H374.217ZM408.474 180.359H402.117V167.933C402.117 165.303 401.978 163.603 401.707 162.836C401.429 162.061 400.988 161.466 400.37 161.036C399.751 160.605 399.008 160.393 398.142 160.393C397.029 160.393 396.031 160.699 395.149 161.309C394.26 161.92 393.657 162.734 393.332 163.737C392.999 164.746 392.837 166.61 392.837 169.335V180.359H386.48V155.977H392.373V159.555C394.485 156.823 397.137 155.46 400.347 155.46C401.754 155.46 403.045 155.718 404.214 156.227C405.389 156.744 406.27 157.394 406.866 158.184C407.468 158.983 407.886 159.883 408.118 160.894C408.358 161.903 408.475 163.344 408.475 165.223V180.359L408.474 180.359Z" fill="#0f4502"/>
</svg>