<svg width="372" height="141" viewBox="0 0 372 141" fill="none" xmlns="http://www.w3.org/2000/svg">
<path fill-rule="evenodd" clip-rule="evenodd" d="M70.2109 0C94.5172 0 115.937 12.3526 128.539 31.1217C141.089 12.9864 161.847 0.386351 185.559 0.386351C209.506 0.386351 230.648 12.3775 243.321 30.682C255.992 12.3793 277.135 0.386351 301.083 0.386351C339.859 0.386351 371.294 31.8197 371.294 70.5972C371.294 103.802 348.241 131.621 317.267 138.93L335.132 103.975C339.945 94.6489 343.055 87.7302 344.392 83.2845C345.729 78.805 346.397 74.3592 346.397 69.9135C346.397 58.1806 342.085 47.7847 333.426 38.7597C324.768 29.7348 313.94 25.2214 300.936 25.2214C288.501 25.2214 277.904 29.5674 269.114 38.2915C260.322 46.9817 255.944 57.6126 255.944 70.2144C255.944 83.1848 260.223 94.0471 268.747 102.771C277.272 111.495 287.634 115.875 299.833 115.875L287.744 139.539C269.39 136.008 253.58 125.329 243.321 110.516C233.596 124.56 218.885 134.888 201.743 138.933L219.608 103.978C224.42 94.6525 227.529 87.7338 228.868 83.288C230.205 78.8085 230.872 74.3628 230.872 69.9171C230.872 58.1841 226.56 47.7883 217.904 38.7633C209.246 29.7384 198.415 25.225 185.413 25.225C172.978 25.225 162.381 29.571 153.591 38.2951C144.8 46.9853 140.422 57.6162 140.422 70.218C140.422 83.1884 144.7 94.0507 153.225 102.775C161.748 111.499 172.111 115.879 184.311 115.879L172.222 139.542C153.542 135.949 137.68 125.705 127.597 110.678C121.667 119.073 113.942 126.109 104.979 131.228L89.6887 102.436C98.5427 99.2905 105.159 94.6204 109.571 88.4246C113.098 83.459 115.215 77.5035 115.905 70.5759C115.905 68.6939 115.993 66.8209 116.153 64.9586C116.087 56.3877 114.077 48.9758 110.155 42.6927C106.165 36.3028 100.911 31.6968 94.3267 28.9407C87.7747 26.1829 76.7486 24.8208 61.3088 24.8208H33.0588V129.796C13.2089 117.392 0 95.3486 0 70.2162C0 31.4404 31.4333 0.00534126 70.2091 0.00534126L70.2109 0ZM301.505 89.9985C306.587 89.9985 310.865 88.1272 314.342 84.4168C317.785 80.7064 319.523 76.1272 319.523 70.6453C319.523 65.0298 317.718 60.3491 314.075 56.5728C310.464 52.7948 306.254 50.8897 301.406 50.8897C296.324 50.8897 291.946 52.761 288.302 56.5052C284.659 60.2494 282.82 64.9284 282.82 70.5456C282.82 76.0952 284.591 80.7064 288.168 84.4168C291.711 88.1272 296.157 89.9985 301.505 89.9985ZM185.981 89.9985C191.062 89.9985 195.341 88.1272 198.818 84.4168C202.261 80.7064 203.999 76.1272 203.999 70.6453C203.999 65.0298 202.193 60.3491 198.551 56.5728C194.94 52.7948 190.729 50.8897 185.881 50.8897C180.8 50.8897 176.422 52.761 172.777 56.5052C169.135 60.2494 167.295 64.9284 167.295 70.5456C167.295 76.0952 169.067 80.7064 172.644 84.4168C176.187 88.1272 180.633 89.9985 185.981 89.9985ZM80.4198 139.678C77.0868 140.164 73.6791 140.418 70.2109 140.418C66.5788 140.418 63.0091 140.142 59.5248 139.61V105.376L80.4198 139.676V139.678ZM59.5248 79.4958H67.9569C76.5189 79.4958 82.3889 78.3937 85.6329 76.1557C88.843 73.9177 90.4649 70.2198 90.4649 65.0316C90.4649 61.9835 89.6531 59.3236 88.0649 57.0536C86.475 54.7835 84.3349 53.1616 81.6429 52.1877C78.983 51.1817 74.053 50.6957 66.885 50.6957H59.523V79.4958H59.5248Z" fill="white"/>
</svg>
